<svg width="438" height="401" viewBox="0 0 438 401" fill="none" xmlns="http://www.w3.org/2000/svg">
<g clip-path="url(#clip0)">
<path d="M408.885 238.065C417.645 215.946 421.219 192.109 419.333 168.389C417.447 144.669 410.15 121.7 398.005 101.249L149.984 135.644L387.668 86.0316C373.207 67.1758 354.608 51.9059 333.31 41.404C312.012 30.9021 288.587 25.4499 264.848 25.4694C179.258 25.4694 109.873 94.963 109.873 180.688C109.875 187.773 110.357 194.849 111.315 201.869L408.885 238.065Z" fill="#F2F2F2"/>
<path d="M120.232 236.573C142.632 294.682 198.93 335.906 264.848 335.906C326.703 335.906 380.087 299.607 404.942 247.121L120.232 236.573Z" fill="#F2F2F2"/>
<path d="M401.112 290.557C401.112 351.555 311.318 401 200.556 401C141.052 401 87.6004 386.732 50.8744 364.064C26.911 349.279 10.0643 330.914 3.30614 310.62C1.12503 304.156 0.00839072 297.38 0 290.557C0 229.566 166.2 -45.5603 200.556 180.121C234.912 405.802 401.112 229.566 401.112 290.557Z" fill="#6C63FF"/>
<path opacity="0.1" d="M300.226 330.61C300.226 353.132 229.211 371.393 141.605 371.393C107.863 371.393 76.582 368.684 50.8744 364.064C26.911 349.279 10.0643 330.914 3.30615 310.62C30.5027 298.209 82.2462 289.827 141.605 289.827C229.211 289.827 300.226 308.088 300.226 330.61Z" fill="black"/>
<path d="M185.729 98.311C173.158 77.0365 148.287 76.0451 148.287 76.0451C148.287 76.0451 124.052 72.9411 108.506 105.342C94.0148 135.543 74.0158 164.702 105.286 171.772L110.934 154.164L114.432 173.083C118.884 173.403 123.351 173.48 127.811 173.312C161.299 172.229 193.191 173.628 192.164 161.593C190.799 145.593 197.825 118.781 185.729 98.311Z" fill="#2F2E41"/>
<path d="M103.5 284.621C103.034 286.943 102.689 289.303 101.897 291.535C101.11 293.75 99.8957 295.799 99.1764 298.038C96.8838 305.172 100.062 313.127 105.138 318.635C109.54 323.391 115.223 326.771 121.5 328.365C126.079 329.519 130.841 329.685 135.56 329.845C148.628 330.289 162.033 330.686 174.415 326.48C178.328 325.118 182.106 323.399 185.704 321.343C186.84 320.801 187.841 320.012 188.633 319.033C189.578 317.687 189.699 315.94 189.69 314.294C189.662 308.746 188.539 303.225 188.806 297.683C188.954 294.613 189.527 291.546 189.245 288.485C188.605 281.545 183.102 275.333 176.298 273.869C172.785 273.114 169.141 273.525 165.565 273.87C156.282 274.763 146.959 275.181 137.633 275.121C128.105 275.06 118.635 273.603 109.154 273.451C106.35 273.406 106.407 274.272 105.514 276.989C104.692 279.491 104.02 282.039 103.5 284.621Z" fill="#2F2E41"/>
<path d="M130.542 147.611C130.084 150.013 129.589 152.502 128.148 154.475C126.49 156.746 123.787 158.043 122.004 160.216C119.32 163.487 119.166 168.089 119.155 172.323C119.144 176.223 119.223 180.383 121.395 183.621C122.804 185.722 124.949 187.195 127.045 188.61C135.189 194.107 143.989 199.702 153.808 199.884C157.877 199.959 162.239 198.906 164.916 195.837C166.072 194.395 166.98 192.772 167.605 191.032C170.116 184.833 171.638 178.277 172.115 171.605C172.339 168.466 172.317 165.236 171.256 162.273C170.064 158.942 167.652 156.202 166.058 153.043C164.173 149.288 163.484 145.044 164.083 140.884C164.162 140.591 164.138 140.28 164.014 140.003C163.883 139.855 163.719 139.739 163.536 139.665C163.353 139.59 163.155 139.559 162.958 139.574L143.488 138.171C141.675 138.08 139.869 137.874 138.082 137.551C137.033 137.338 134.261 135.845 133.26 136.242C131.408 136.976 130.921 145.62 130.542 147.611Z" fill="#A0616A"/>
<path opacity="0.1" d="M130.542 148.22C130.084 150.621 129.589 153.111 128.148 155.084C126.49 157.355 123.787 158.652 122.004 160.825C119.32 164.095 119.166 168.698 119.155 172.932C119.144 176.832 119.223 180.992 121.395 184.23C122.804 186.331 124.949 187.804 127.045 189.218C135.189 194.715 143.989 200.311 153.808 200.492C157.877 200.567 162.239 199.515 164.916 196.446C166.072 195.004 166.98 193.38 167.605 191.64C170.116 185.442 171.638 178.886 172.115 172.214C172.339 169.075 172.317 165.844 171.256 162.882C170.064 159.551 167.652 156.81 166.058 153.652C164.173 149.897 163.484 145.653 164.083 141.493C164.162 141.2 164.138 140.889 164.014 140.612C163.883 140.464 163.719 140.348 163.536 140.273C163.353 140.199 163.155 140.168 162.958 140.183L143.488 138.779C141.675 138.689 139.869 138.482 138.082 138.16C137.033 137.946 134.261 136.453 133.26 136.85C131.408 137.585 130.921 146.229 130.542 148.22Z" fill="black"/>
<path d="M149.161 150.226C164.936 150.226 177.725 137.418 177.725 121.617C177.725 105.817 164.936 93.0084 149.161 93.0084C133.385 93.0084 120.597 105.817 120.597 121.617C120.597 137.418 133.385 150.226 149.161 150.226Z" fill="#A0616A"/>
<path d="M134.548 185.694C136.037 187.253 137.614 188.796 139.565 189.71C141.505 190.618 143.691 190.845 145.833 190.905C150.982 191.05 156.564 190.105 160.145 186.398C164.763 181.618 164.611 173.91 168.23 168.334C168.521 167.829 168.919 167.393 169.396 167.057C170.003 166.726 170.689 166.568 171.379 166.6C175.95 166.557 179.932 169.526 183.525 172.356C185.135 173.624 186.785 174.937 187.8 176.718C188.511 178.106 188.997 179.599 189.242 181.14C191.025 189.858 191.603 198.772 192.176 207.653C192.492 212.559 192.809 217.469 192.786 222.384C192.708 238.579 188.95 254.503 185.212 270.259C184.731 272.29 184.072 274.559 182.228 275.531C181.407 275.901 180.524 276.117 179.625 276.168C168.92 277.427 158.194 278.688 147.417 278.854C143.211 278.919 139.007 278.817 134.805 278.548C134.082 278.538 133.365 278.413 132.681 278.177C131.753 277.731 130.955 277.052 130.365 276.207C124.536 268.85 124.192 258.678 124.229 249.286C124.32 226.323 125.139 203.378 126.686 180.451C126.814 178.559 126.842 176.261 125.481 174.772C127.932 178.703 131.341 182.338 134.548 185.694Z" fill="#D0CDE1"/>
<path d="M128.498 152.661C127.533 154.41 120.42 158.753 119.047 160.203C111.375 168.303 97.3724 167.999 90.3558 176.674C87.8871 179.726 86.6045 183.561 85.6612 187.374C84.3271 192.766 83.6147 198.647 85.8496 203.732C88.0002 208.624 92.5273 212.007 95.6009 216.377C98.9756 221.175 100.493 227.002 101.947 232.688C103.021 236.886 104.103 241.188 103.685 245.502C103.21 250.406 100.84 254.897 99.4412 259.621C98.0422 264.345 97.8007 269.971 101.036 273.684C103.412 276.411 107.14 277.492 110.703 278.101C115.25 278.877 119.872 279.098 124.481 279.302C128.554 279.482 133.044 279.517 136.175 276.902C138.645 274.839 139.719 271.49 139.858 268.271C139.997 265.052 139.329 261.862 138.91 258.667C138.475 255.356 138.309 252.015 138.169 248.678C137.543 233.705 137.457 218.722 137.913 203.73C138.007 200.61 138.123 197.452 137.458 194.403C136.585 190.392 134.421 186.808 132.615 183.123C129.031 175.809 127.336 168.704 127.89 160.574C128.437 152.55 131.93 146.437 128.498 152.661Z" fill="#575A89"/>
<path d="M168.609 153.27C170.078 154.782 175.071 155.281 176.941 156.255C178.658 157.15 180.558 157.618 182.418 158.155C189.236 160.125 195.722 163.106 201.659 166.999C202.892 167.722 203.983 168.666 204.876 169.783C205.922 171.24 206.302 173.058 206.656 174.817C207.572 179.358 208.492 183.954 208.286 188.582C208.067 193.494 206.59 198.252 205.124 202.945L199.648 220.482C195.56 233.571 191.446 246.79 190.296 260.456C189.659 268.03 189.942 275.654 191.138 283.16C191.259 283.915 191.36 284.78 190.862 285.359C190.501 285.716 190.027 285.935 189.521 285.977C186.878 286.391 184.32 285.041 181.925 283.847C174.605 280.198 166.794 277.638 158.736 276.247C161.885 271.69 164.314 266.675 165.939 261.377C166.861 258.013 167.588 254.598 168.115 251.15L170.662 236.392C171.597 230.98 172.532 225.555 172.848 220.072C173.04 218.017 172.921 215.944 172.493 213.924C172.005 211.976 171.035 210.191 170.166 208.38C165.968 199.633 163.998 189.651 165.65 180.087C166.373 175.902 167.778 171.711 167.192 167.504C166.628 163.459 167.214 160.316 166.178 156.313C161.924 139.878 165.844 150.424 168.609 153.27Z" fill="#575A89"/>
<path d="M90.2831 190.504C88.369 194.482 85.1689 197.871 84.0797 202.151C83.6559 204.151 83.4743 206.194 83.5388 208.238C83.513 211.318 83.4962 214.46 84.4405 217.391C85.0484 219.278 86.0374 221.019 86.7498 222.869C87.743 225.453 88.1854 228.217 88.0488 230.983C87.8565 234.816 86.5567 238.535 86.4551 242.371C86.2954 248.403 89.0809 254.073 91.7989 259.458C92.483 257.761 93.529 256.235 94.8637 254.985C96.1984 253.735 97.7896 252.793 99.526 252.224C101.262 251.654 103.102 251.472 104.916 251.689C106.73 251.906 108.475 252.517 110.029 253.481C110.746 252.817 110.822 251.728 110.85 250.751C111.051 243.753 111.245 236.755 111.432 229.757C111.726 218.934 112.006 207.966 109.52 197.429C108.398 192.672 106.652 187.932 103.45 184.242C101.764 182.299 96.0416 177.182 93.2744 179.358C92.0299 180.337 92.3208 183.002 92.1236 184.351C91.826 186.484 91.2053 188.559 90.2831 190.504Z" fill="#575A89"/>
<path d="M208.845 179.039C209.751 181.863 209.805 184.88 209.823 187.846C209.86 193.895 209.78 199.944 209.583 205.991C209.482 209.088 209.343 212.226 208.406 215.178C207.788 217.125 206.834 218.951 206.195 220.891C204.282 226.706 205.327 233.013 205.492 239.133C205.607 241.114 205.439 243.101 204.99 245.034C203.981 248.828 201.267 251.894 199.373 255.332C197.575 258.597 196.49 262.257 194.342 265.303C192.193 268.349 188.475 270.763 184.87 269.828C182.139 269.119 180.199 266.698 178.857 264.213C175.928 258.749 174.926 252.454 176.014 246.349C177.361 238.92 181.718 232.33 183.289 224.946C185.446 214.806 182.167 204.342 182.265 193.975C182.22 192.35 182.44 190.729 182.916 189.174C183.741 186.806 185.511 184.915 187.146 183.016C189.189 180.643 191.087 178.148 192.83 175.545C194 173.796 195.59 169.299 197.666 168.925C202.299 168.09 207.696 175.454 208.845 179.039Z" fill="#575A89"/>
<path d="M66.2403 280.111C63.678 279.466 61.038 279.185 58.3976 279.276C55.6233 279.43 52.9135 280.173 50.4483 281.457C47.9831 282.74 45.819 284.535 44.1 286.721C42.3809 288.908 41.1462 291.435 40.478 294.137C39.8098 296.838 39.7235 299.65 40.2246 302.388C40.7701 305.367 41.9956 308.176 43.3324 310.893C45.4122 315.121 47.9069 319.338 51.7573 322.048C54.0097 323.632 56.6166 324.62 59.1926 325.592L79.4722 333.244C82.4556 334.37 85.4394 335.496 88.4523 336.539C103.589 341.779 119.37 344.922 135.356 345.879C140.226 346.169 145.169 346.25 149.92 345.139C151.047 344.876 152.249 344.483 152.902 343.526C153.289 342.851 153.517 342.097 153.569 341.321L154.816 332.571C154.992 331.339 155.161 330.042 154.71 328.883C154.139 327.412 152.706 326.487 151.34 325.701C138.007 318.032 122.44 313.801 111.218 303.274C108.576 300.796 106.365 296.868 103.155 295.185C99.5154 293.276 95.2287 292.187 91.4663 290.428C83.2413 286.582 75.1546 282.164 66.2403 280.111Z" fill="#2F2E41"/>
<path opacity="0.1" d="M86.4866 291.907C93.6546 294.157 123.918 309.742 129.105 315.184C128.41 315.435 104.819 302.193 104.111 301.981C97.6767 300.046 91.2064 298.1 85.0958 295.269C83.8665 294.7 77.1097 292.023 77.4157 290.47C77.761 288.717 85.2141 291.508 86.4866 291.907Z" fill="black"/>
<path d="M175.912 350.417C176.319 350.446 176.723 350.327 177.048 350.082C177.191 349.898 177.296 349.687 177.357 349.463C177.418 349.238 177.434 349.003 177.404 348.772C177.392 344.799 177.381 340.825 177.37 336.852C173.948 335.218 170.119 334.695 166.362 334.192L148.829 331.845C149.232 331.899 146.088 339.408 146.57 340.411C147.42 342.177 153.913 343.743 155.746 344.578C162.117 347.478 168.737 350.666 175.912 350.417Z" fill="#A0616A"/>
<path d="M120.904 336.81C117.593 337.339 113.899 337.805 111.755 340.386C109.036 343.659 110.194 348.538 111.49 352.593C111.683 353.413 112.07 354.175 112.618 354.814C113.503 355.689 114.859 355.817 116.1 355.895C119.119 356.087 122.332 356.237 124.97 354.754C126.219 354.051 127.251 353.025 128.415 352.189C130.36 350.892 132.498 349.913 134.75 349.288C138.889 347.984 143.149 347.105 147.466 346.663C149.158 346.49 150.884 346.379 152.475 345.779C154.067 345.178 155.541 343.988 156.003 342.348C156.614 340.182 155.357 337.974 154.151 336.074C152.649 333.707 151.058 331.215 148.819 329.473C145.552 326.931 143.936 328.883 140.645 330.509C134.417 333.588 127.762 335.712 120.904 336.81Z" fill="#A0616A"/>
<path d="M112.253 339.797L91.2336 333.575C88.6772 332.818 86.0772 332.054 83.4115 332.056C80.7458 332.058 77.9569 332.934 76.2281 334.966C74.5982 336.882 74.1317 339.501 73.7254 341.984L72.8562 347.298C72.4145 349.998 71.9719 352.751 72.3695 355.458C72.7671 358.165 74.1469 360.87 76.5452 362.18C79.4538 363.77 83.0188 362.993 86.265 362.328C92.8222 360.986 99.4917 360.27 106.184 360.189C108.7 360.159 111.339 360.191 113.562 359.01C116.204 357.608 117.785 354.642 118.057 351.658C118.471 347.119 116.96 341.19 112.253 339.797Z" fill="#2F2E41"/>
<path d="M184.174 334.375C186.899 333.896 189.304 332.345 191.915 331.43C195.59 330.141 199.573 330.141 203.467 330.155C204.896 330.16 206.418 330.192 207.608 330.986C209.323 332.13 209.763 334.418 210.054 336.461C210.641 340.57 211.227 344.678 211.814 348.787C212.145 351.105 212.474 353.486 211.958 355.77C211.441 358.054 209.887 360.256 207.624 360.846C204.875 361.561 202.181 359.803 199.586 358.647C193.099 355.76 185.559 356.498 178.796 354.34C177.541 353.94 176.197 353.327 175.685 352.112C175.453 351.427 175.371 350.701 175.443 349.982C175.558 346.02 174.724 340.61 175.915 336.823C176.986 333.418 181.133 334.375 184.174 334.375Z" fill="#2F2E41"/>
<path d="M228.656 275.15C232.856 274.095 237.21 273.797 241.514 274.27C244.951 274.65 248.493 275.608 251.003 277.991C254.057 280.891 255.039 285.376 255.121 289.591C255.255 297.987 252.475 306.168 247.255 312.739C245.981 314.4 244.465 315.862 242.759 317.074C240.918 318.228 238.956 319.175 236.908 319.898L191.493 337.839C179.545 342.559 167.555 347.293 155.093 350.405C154.752 350.569 154.382 350.664 154.004 350.683C153.626 350.703 153.248 350.646 152.892 350.517C152.537 350.388 152.21 350.189 151.933 349.931C151.655 349.674 151.431 349.364 151.275 349.018C147.296 343.326 143.958 337.21 141.321 330.782C141.197 330.629 141.11 330.448 141.07 330.255C141.03 330.062 141.036 329.862 141.089 329.672C141.143 329.482 141.241 329.307 141.376 329.163C141.51 329.019 141.678 328.91 141.864 328.844L173.986 310.358C176.287 309.034 178.614 307.691 180.525 305.847C181.913 304.499 183.05 302.914 183.881 301.166C184.547 299.773 184.609 296.486 185.46 295.456C186.293 294.448 189.141 294.368 190.457 293.971C192.312 293.402 194.129 292.714 195.897 291.912C203.082 288.692 209.481 284.014 216.369 280.244C220.233 278.032 224.361 276.32 228.656 275.15Z" fill="#2F2E41"/>
<path opacity="0.1" d="M210.445 288.955C204.926 293.107 197.78 296.923 192.311 301.184C190.444 302.638 159.325 320.161 158.885 322.488C163.988 323.349 196.494 300.573 201.145 298.3C205.795 296.028 209.918 292.823 214.004 289.641C215.045 288.831 219.457 286.393 216.468 285.488C214.785 284.977 211.688 288.125 210.445 288.955Z" fill="black"/>
<path d="M172.472 153.672H124.027C122.059 153.672 120.171 154.455 118.779 155.849C117.388 157.243 116.606 159.133 116.606 161.105V163.826H116.079V169.913H116.606V174.174H116.079V177.826H116.606V222.74C116.606 224.711 117.388 226.602 118.779 227.996C120.171 229.389 122.059 230.172 124.027 230.173H172.472C174.44 230.172 176.327 229.389 177.719 227.996C179.111 226.602 179.893 224.711 179.893 222.74V161.105C179.893 159.133 179.111 157.243 177.719 155.849C176.327 154.455 174.44 153.672 172.472 153.672Z" fill="#3F3D56"/>
<path d="M180.171 96.2602L155.6 83.3694L121.669 88.6431L114.648 119.698L132.124 119.024L137.006 107.615V118.837L145.069 118.526L149.75 100.362L152.675 119.698L181.341 119.112L180.171 96.2602Z" fill="#2F2E41"/>
<path d="M96.7115 271.128C97.9255 272.943 99.348 274.718 101.298 275.698C103.735 276.921 106.742 276.703 109.182 275.486C111.601 274.187 113.581 272.199 114.872 269.772C117.542 265.049 118.095 259.398 117.762 253.981C117.429 248.563 116.274 243.229 115.763 237.825C115.391 233.898 115.361 229.946 115.331 226.001C115.325 225.172 115.338 224.278 115.827 223.609C116.419 222.8 117.502 222.578 118.461 222.292C123.851 220.688 127.428 215.629 129.993 210.618C131.705 207.272 133.195 203.614 132.864 199.868C132.534 196.123 129.846 192.35 126.111 191.968C123.032 191.653 120.189 193.611 117.968 195.77C112.365 201.25 108.765 208.458 107.744 216.235C107.257 220.043 107.397 223.955 106.362 227.652C104.154 235.546 97.245 240.386 93.8019 247.489C90.008 255.316 92.1019 264.202 96.7115 271.128Z" fill="#A0616A"/>
<path d="M198.383 240.969C197.598 242.8 196.454 244.454 195.019 245.835C193.584 247.216 191.888 248.295 190.03 249.008C187.721 249.937 185.174 250.093 182.769 249.453C181.576 249.122 180.476 248.52 179.553 247.693C178.63 246.867 177.911 245.838 177.449 244.688C177.081 243.529 176.879 242.324 176.85 241.108C176.504 235.785 176.638 230.299 178.569 225.327C179.313 223.41 180.317 221.591 180.905 219.619C181.575 217.371 181.682 214.998 181.785 212.653L182.419 198.128C182.524 197.074 182.451 196.009 182.204 194.979C181.571 192.877 179.61 191.512 177.81 190.258C173.464 187.231 169.17 183.699 167.064 178.835C166.42 177.347 165.995 175.692 166.322 174.103C166.915 171.219 169.822 169.352 172.694 168.723C174.573 168.311 176.517 168.285 178.406 168.646C180.296 169.006 182.094 169.746 183.69 170.821C185.287 171.896 186.65 173.284 187.697 174.9C188.744 176.517 189.453 178.329 189.783 180.227C190.067 181.867 190.063 183.541 190.229 185.196C190.582 188.708 191.695 192.092 192.391 195.552C194.106 204.073 193.218 212.882 194.914 221.402C196.332 228.526 201.679 233.175 198.383 240.969Z" fill="#A0616A"/>
<path d="M148.898 186.348C152.254 186.348 154.975 183.623 154.975 180.261C154.975 176.899 152.254 174.174 148.898 174.174C145.541 174.174 142.82 176.899 142.82 180.261C142.82 183.623 145.541 186.348 148.898 186.348Z" fill="#D0CDE1"/>
<path d="M405.441 186.778C399.002 186.778 392.707 188.691 387.352 192.274C381.998 195.857 377.825 200.95 375.361 206.909C372.896 212.868 372.252 219.424 373.508 225.75C374.764 232.076 377.865 237.886 382.419 242.447C386.972 247.007 392.773 250.113 399.089 251.372C405.405 252.63 411.952 251.984 417.901 249.516C423.85 247.048 428.935 242.868 432.513 237.505C436.09 232.143 438 225.838 438 219.388C438 215.106 437.158 210.865 435.522 206.909C433.885 202.952 431.487 199.358 428.464 196.329C425.44 193.301 421.851 190.899 417.901 189.26C413.951 187.622 409.717 186.778 405.441 186.778ZM421.532 211.117C421.549 211.47 421.558 211.83 421.558 212.191C421.558 223.193 413.206 235.878 397.917 235.878C393.406 235.888 388.989 234.581 385.209 232.116C385.866 232.195 386.527 232.235 387.189 232.236C390.93 232.243 394.564 230.988 397.505 228.672C395.771 228.64 394.091 228.065 392.7 227.028C391.308 225.992 390.275 224.546 389.745 222.892C390.258 222.996 390.781 223.048 391.305 223.047C392.044 223.047 392.779 222.948 393.492 222.755C391.612 222.374 389.921 221.354 388.707 219.866C387.492 218.379 386.829 216.517 386.829 214.596V214.493C387.983 215.142 389.279 215.499 390.602 215.532C388.841 214.356 387.594 212.552 387.114 210.487C386.635 208.422 386.959 206.252 388.021 204.418C390.103 206.992 392.704 209.097 395.653 210.596C398.602 212.095 401.834 212.955 405.137 213.119C404.991 212.497 404.919 211.859 404.922 211.221C404.92 209.552 405.42 207.921 406.356 206.54C407.292 205.16 408.622 204.094 410.171 203.48C411.721 202.867 413.419 202.735 415.044 203.101C416.67 203.468 418.148 204.316 419.285 205.535C421.146 205.171 422.93 204.488 424.559 203.517C423.94 205.444 422.641 207.08 420.906 208.12C422.551 207.92 424.158 207.477 425.674 206.806C424.56 208.478 423.157 209.938 421.532 211.117Z" fill="#3F3D56"/>
<path d="M394.972 101.869C398.167 101.869 400.758 99.2743 400.758 96.074C400.758 92.8737 398.167 90.2794 394.972 90.2794C391.777 90.2794 389.187 92.8737 389.187 96.074C389.187 99.2743 391.777 101.869 394.972 101.869Z" fill="#3F3D56"/>
<path d="M402.204 81.5875H387.74C385.824 81.5931 383.988 82.3581 382.633 83.7152C381.278 85.0724 380.514 86.9115 380.508 88.8308V103.317C380.514 105.237 381.278 107.076 382.633 108.433C383.988 109.79 385.824 110.555 387.74 110.56H402.204C404.12 110.555 405.956 109.79 407.311 108.433C408.666 107.076 409.43 105.237 409.436 103.317V88.8308C409.43 86.9115 408.666 85.0724 407.311 83.7153C405.956 82.3581 404.12 81.5932 402.204 81.5875H402.204ZM394.972 104.766C393.256 104.766 391.578 104.256 390.151 103.301C388.724 102.346 387.611 100.988 386.954 99.4002C386.298 97.812 386.126 96.0643 386.461 94.3783C386.795 92.6922 387.622 91.1435 388.836 89.9279C390.049 88.7123 391.596 87.8845 393.279 87.5491C394.962 87.2138 396.707 87.3859 398.293 88.0437C399.879 88.7016 401.234 89.8157 402.188 91.245C403.141 92.6744 403.65 94.3549 403.65 96.074C403.65 98.379 402.735 100.59 401.108 102.219C399.48 103.849 397.273 104.765 394.972 104.766ZM404.373 88.8308C403.944 88.8307 403.525 88.7033 403.168 88.4645C402.811 88.2258 402.533 87.8864 402.369 87.4893C402.205 87.0923 402.162 86.6554 402.246 86.2338C402.329 85.8123 402.536 85.4251 402.839 85.1212C403.143 84.8174 403.529 84.6104 403.95 84.5266C404.371 84.4427 404.807 84.4858 405.204 84.6502C405.6 84.8147 405.939 85.0932 406.177 85.4506C406.416 85.8079 406.543 86.228 406.543 86.6578C406.544 86.9434 406.488 87.2262 406.379 87.4902C406.271 87.7541 406.111 87.994 405.909 88.1959C405.708 88.3978 405.468 88.5578 405.205 88.6668C404.941 88.7757 404.659 88.8315 404.373 88.8308V88.8308Z" fill="#3F3D56"/>
<path d="M394.601 62.0006C387.812 62.0006 381.176 64.0168 375.531 67.7943C369.887 71.5718 365.487 76.9409 362.889 83.2226C360.292 89.5043 359.612 96.4166 360.936 103.085C362.261 109.754 365.53 115.879 370.33 120.687C375.13 125.495 381.246 128.769 387.904 130.096C394.563 131.422 401.464 130.741 407.736 128.139C414.008 125.537 419.368 121.131 423.14 115.478C426.912 109.824 428.925 103.178 428.925 96.3784C428.925 91.8639 428.037 87.3935 426.312 83.2226C424.587 79.0517 422.059 75.2619 418.871 72.0696C415.684 68.8774 411.9 66.3451 407.736 64.6175C403.572 62.8898 399.108 62.0006 394.601 62.0006ZM412.328 103.317C412.321 106.004 411.251 108.579 409.354 110.479C407.457 112.379 404.887 113.45 402.204 113.458H387.74C385.057 113.45 382.487 112.379 380.59 110.479C378.693 108.579 377.623 106.004 377.615 103.317V88.8308C377.623 86.1438 378.693 83.5691 380.59 81.6691C382.487 79.7691 385.057 78.6982 387.74 78.6903H402.204C404.887 78.6982 407.457 79.7691 409.354 81.6691C411.251 83.5691 412.321 86.1438 412.329 88.8308L412.328 103.317Z" fill="#3F3D56"/>
<path d="M255.371 0C248.691 0 242.161 1.98385 236.608 5.70069C231.054 9.41753 226.725 14.7004 224.169 20.8813C221.613 27.0622 220.944 33.8634 222.247 40.425C223.55 46.9866 226.767 53.0138 231.49 57.7444C236.213 62.475 242.231 65.6966 248.782 67.0018C255.333 68.307 262.124 67.6371 268.295 65.0769C274.466 62.5167 279.741 58.1812 283.452 52.6185C287.163 47.0559 289.144 40.516 289.144 33.8259C289.144 29.3838 288.27 24.9852 286.573 20.8813C284.876 16.7773 282.388 13.0484 279.252 9.90737C276.116 6.76635 272.393 4.27475 268.295 2.57484C264.198 0.874932 259.806 0 255.371 0ZM266.02 20.4677H261.697C258.745 20.4677 258.182 21.8661 258.182 23.9268V28.306H265.212L264.293 35.1752H258.182V53.8202H250.343V35.1752H244.722V28.306H250.343V23.2277C250.343 17.1435 254.556 13.8316 259.982 13.8316C262.578 13.8316 265.371 14.0278 266.02 14.1137L266.02 20.4677Z" fill="#3F3D56"/>
</g>
<defs>
<clipPath id="clip0">
<rect width="438" height="401" fill="white"/>
</clipPath>
</defs>
</svg>
