<svg width="396" height="349" viewBox="0 0 396 349" fill="none" xmlns="http://www.w3.org/2000/svg">
<g clip-path="url(#clip0)">
<path d="M153.653 8.98708L155.21 6.58484C154.749 5.3115 154.215 4.06517 153.613 2.85179L152.606 3.6636L153.403 2.43366C152.643 0.940666 152.046 0 152.046 0C152.046 0 148.923 4.91249 147.879 10.1137L149.877 13.1963L147.665 11.4128C147.587 12.0187 147.546 12.6289 147.544 13.2399C147.544 19.3999 149.559 24.3935 152.046 24.3935C154.532 24.3935 156.547 19.3999 156.547 13.2399C156.5 11.2801 156.153 9.33895 155.517 7.48418L153.653 8.98708Z" fill="#E6E6E6"/>
<path d="M164.675 14.3274L167.478 13.7279C168.053 12.5016 168.559 11.2438 168.992 9.9606L167.705 9.82392L169.14 9.51697C169.661 7.92495 169.904 6.8378 169.904 6.8378C169.904 6.8378 164.216 8.10713 159.794 11.0485L159.023 14.6387L158.723 11.8161C158.238 12.1889 157.777 12.5918 157.343 13.0224C152.979 17.3782 150.867 22.3318 152.625 24.0866C154.383 25.8414 159.345 23.733 163.709 19.3772C165.064 17.9585 166.193 16.3408 167.058 14.5804L164.675 14.3274Z" fill="#E6E6E6"/>
<path d="M165.699 38.1634C159.199 38.5784 152.118 38.1392 144.584 38.1634V20.9455C151.223 21.9771 158.302 21.8711 165.699 20.9455V38.1634Z" fill="#E6E6E6"/>
<path d="M212.195 51.5891L213.21 50.0225C212.909 49.1921 212.561 48.3793 212.169 47.588L211.512 48.1175L212.032 47.3154C211.536 46.3417 211.147 45.7283 211.147 45.7283C209.895 47.7687 208.978 49.9952 208.43 52.3238L209.733 54.3341L208.29 53.171C208.239 53.5662 208.212 53.9641 208.211 54.3626C208.211 58.3797 209.525 61.6363 211.147 61.6363C212.768 61.6363 214.082 58.3797 214.082 54.3626C214.052 53.0845 213.825 51.8186 213.411 50.609L212.195 51.5891Z" fill="#E6E6E6"/>
<path d="M219.383 55.0718L221.21 54.6808C221.586 53.8811 221.915 53.0608 222.198 52.224L221.359 52.1349L222.295 51.9347C222.634 50.8965 222.793 50.1875 222.793 50.1875C220.463 50.7473 218.237 51.6742 216.2 52.9335L215.697 55.2748L215.501 53.4341C215.185 53.6772 214.884 53.9399 214.601 54.2207C211.755 57.0613 210.378 60.2918 211.524 61.4362C212.671 62.5806 215.907 61.2056 218.752 58.365C219.636 57.4398 220.373 56.3848 220.936 55.2368L219.383 55.0718Z" fill="#E6E6E6"/>
<path d="M220.05 70.6162C215.812 70.8868 211.194 70.6005 206.281 70.6162V59.3877C210.848 60.0264 215.483 60.0264 220.05 59.3877V70.6162Z" fill="#E6E6E6"/>
<path d="M217.433 103.893C213.691 104.132 209.613 103.879 205.274 103.893V93.9781C209.308 94.542 213.4 94.542 217.433 93.9781V103.893Z" fill="#E6E6E6"/>
<path d="M238.788 36.9526H75.1783V41.5146H238.788V36.9526Z" fill="#E6E6E6"/>
<path d="M238.788 69.343H75.1783V73.9051H238.788V69.343Z" fill="#E6E6E6"/>
<path d="M238.788 101.734H75.1783V106.296H238.788V101.734Z" fill="#E6E6E6"/>
<path d="M211.368 97.6277C216.416 97.6277 220.508 93.5427 220.508 88.5036C220.508 83.4645 216.416 79.3795 211.368 79.3795C206.32 79.3795 202.227 83.4645 202.227 88.5036C202.227 93.5427 206.32 97.6277 211.368 97.6277Z" fill="#E6E6E6"/>
<path d="M211.368 95.8029C215.406 95.8029 218.68 92.5349 218.68 88.5036C218.68 84.4723 215.406 81.2043 211.368 81.2043C207.329 81.2043 204.055 84.4723 204.055 88.5036C204.055 92.5349 207.329 95.8029 211.368 95.8029Z" fill="white"/>
<path d="M211.368 90.3285C212.377 90.3285 213.196 89.5115 213.196 88.5036C213.196 87.4958 212.377 86.6788 211.368 86.6788C210.358 86.6788 209.539 87.4958 209.539 88.5036C209.539 89.5115 210.358 90.3285 211.368 90.3285Z" fill="#E6E6E6"/>
<path d="M217.766 88.9598V88.0474H210.454V88.9598H217.766Z" fill="#E6E6E6"/>
<path d="M210.911 89.416H211.825V82.1168H210.911V89.416Z" fill="#E6E6E6"/>
<path d="M158.518 47.0878H152.47V70.9842H158.518V47.0878Z" fill="#E6E6E6"/>
<path d="M158.518 50.861H152.47V53.6279H158.518V50.861Z" fill="#CCCCCC"/>
<path d="M158.518 62.9349H152.47V65.7019H158.518V62.9349Z" fill="#CCCCCC"/>
<path d="M149.194 47.0878H143.146V70.9842H149.194V47.0878Z" fill="#E6E6E6"/>
<path d="M149.194 50.861H143.146V53.6279H149.194V50.861Z" fill="#CCCCCC"/>
<path d="M149.194 62.9349H143.146V65.7019H149.194V62.9349Z" fill="#CCCCCC"/>
<path d="M163.728 46.9891L158.309 49.6676L168.93 71.0831L174.35 68.4045L163.728 46.9891Z" fill="#E6E6E6"/>
<path d="M165.405 50.3704L159.986 53.049L161.215 55.5287L166.635 52.8501L165.405 50.3704Z" fill="#CCCCCC"/>
<path d="M170.772 61.1909L165.352 63.8694L166.582 66.3491L172.002 63.6706L170.772 61.1909Z" fill="#CCCCCC"/>
<path d="M104.59 79.4783H98.5426V103.375H104.59V79.4783Z" fill="#E6E6E6"/>
<path d="M104.59 83.2515H98.5426V86.0184H104.59V83.2515Z" fill="#CCCCCC"/>
<path d="M104.59 95.3254H98.5426V98.0924H104.59V95.3254Z" fill="#CCCCCC"/>
<path d="M95.2668 79.4783H89.2191V103.375H95.2668V79.4783Z" fill="#E6E6E6"/>
<path d="M95.2668 83.2515H89.2191V86.0184H95.2668V83.2515Z" fill="#CCCCCC"/>
<path d="M95.2668 95.3254H89.2191V98.0924H95.2668V95.3254Z" fill="#CCCCCC"/>
<path d="M109.801 79.3796L104.381 82.0581L115.003 103.474L120.422 100.795L109.801 79.3796Z" fill="#E6E6E6"/>
<path d="M111.478 82.7609L106.058 85.4395L107.288 87.9192L112.708 85.2406L111.478 82.7609Z" fill="#CCCCCC"/>
<path d="M116.845 93.5813L111.425 96.2599L112.655 98.7396L118.075 96.061L116.845 93.5813Z" fill="#CCCCCC"/>
<path d="M161.26 79.4783H155.212V103.375H161.26V79.4783Z" fill="#E6E6E6"/>
<path d="M161.26 83.2515H155.212V86.0184H161.26V83.2515Z" fill="#CCCCCC"/>
<path d="M161.26 95.3254H155.212V98.0924H161.26V95.3254Z" fill="#CCCCCC"/>
<path d="M151.936 79.4783H145.889V103.375H151.936V79.4783Z" fill="#E6E6E6"/>
<path d="M151.936 83.2515H145.889V86.0184H151.936V83.2515Z" fill="#CCCCCC"/>
<path d="M151.936 95.3254H145.889V98.0924H151.936V95.3254Z" fill="#CCCCCC"/>
<path d="M166.47 79.3796L161.051 82.0581L171.672 103.474L177.092 100.795L166.47 79.3796Z" fill="#E6E6E6"/>
<path d="M168.147 82.7609L162.728 85.4395L163.958 87.9192L169.377 85.2406L168.147 82.7609Z" fill="#CCCCCC"/>
<path d="M173.514 93.5814L168.094 96.2599L169.324 98.7396L174.744 96.061L173.514 93.5814Z" fill="#CCCCCC"/>
<path d="M225.992 14.6256H201.956V38.6193H225.992V14.6256Z" fill="#E6E6E6"/>
<path d="M221.185 19.4244H206.763V33.8206H221.185V19.4244Z" fill="#CCCCCC"/>
<path d="M210.938 24.2567L213.996 29.5436L217.053 34.8306H210.938H204.822L207.88 29.5436L210.938 24.2567Z" fill="#E6E6E6"/>
<path d="M216.251 25.2669L219.309 30.5539L222.367 35.8409H216.251H210.135L213.193 30.5539L216.251 25.2669Z" fill="#E6E6E6"/>
<path d="M218.402 23.718C219.38 23.718 220.173 22.9264 220.173 21.95C220.173 20.9736 219.38 20.1821 218.402 20.1821C217.423 20.1821 216.63 20.9736 216.63 21.95C216.63 22.9264 217.423 23.718 218.402 23.718Z" fill="#E6E6E6"/>
<path d="M104.427 14.6256H80.3909V38.6193H104.427V14.6256Z" fill="#E6E6E6"/>
<path d="M99.6198 19.4244H85.1982V33.8206H99.6198V19.4244Z" fill="#CCCCCC"/>
<path d="M89.3729 24.2567L92.4306 29.5436L95.4888 34.8306H89.3729H83.2571L86.3148 29.5436L89.3729 24.2567Z" fill="#E6E6E6"/>
<path d="M94.6863 25.2669L97.744 30.5539L100.802 35.8409H94.6863H88.5704L91.6281 30.5539L94.6863 25.2669Z" fill="#E6E6E6"/>
<path d="M96.8367 23.718C97.8148 23.718 98.6077 22.9264 98.6077 21.95C98.6077 20.9736 97.8148 20.1821 96.8367 20.1821C95.8585 20.1821 95.0656 20.9736 95.0656 21.95C95.0656 22.9264 95.8585 23.718 96.8367 23.718Z" fill="#E6E6E6"/>
<path d="M32.0882 178.239L33.6454 175.837C33.1836 174.563 32.6503 173.317 32.0479 172.104L31.041 172.915L31.8382 171.685C31.0784 170.192 30.4806 169.252 30.4806 169.252C30.4806 169.252 27.3577 174.164 26.3143 179.365L28.3125 182.448L26.1004 180.665C26.0217 181.27 25.9811 181.881 25.9791 182.492C25.9791 188.652 27.9945 193.645 30.4806 193.645C32.9667 193.645 34.9821 188.652 34.9821 182.492C34.9354 180.532 34.5881 178.591 33.9523 176.736L32.0882 178.239Z" fill="#6C63FF"/>
<path d="M43.11 183.579L45.9127 182.98C46.4881 181.753 46.9938 180.496 47.4274 179.212L46.1403 179.076L47.5753 178.769C48.0956 177.177 48.3392 176.09 48.3392 176.09C48.3392 176.09 42.6512 177.359 38.2291 180.3L37.4585 183.89L37.1577 181.068C36.6728 181.441 36.2118 181.844 35.7776 182.274C31.4142 186.63 29.302 191.584 31.0599 193.338C32.8179 195.093 37.7802 192.985 42.1437 188.629C43.499 187.21 44.6284 185.593 45.4926 183.832L43.11 183.579Z" fill="#6C63FF"/>
<path d="M44.1336 207.415C37.6344 207.83 30.5529 207.391 23.0193 207.415V190.197C29.6576 191.229 36.7368 191.123 44.1336 190.197V207.415Z" fill="#3F3D56"/>
<path d="M312.596 212.819H224.849V326.414H312.596V212.819Z" fill="#E6E6E6"/>
<path d="M46.1581 218.75H41.588V326.414H46.1581V218.75Z" fill="#E6E6E6"/>
<path d="M312.596 205.064H0V214.188H312.596V205.064Z" fill="#E6E6E6"/>
<path d="M48.4432 214.188H39.3029V223.312H48.4432V214.188Z" fill="#E6E6E6"/>
<path d="M275.635 219.434L275.12 221.487H262.324L261.553 219.434H228.962V240.42H308.482V219.434H275.635Z" fill="#3F3D56"/>
<path d="M275.635 245.894L275.12 247.947H262.324L261.553 245.894H228.962V266.879H308.482V245.894H275.635Z" fill="#3F3D56"/>
<path d="M275.635 272.354L275.12 274.407H262.324L261.553 272.354H228.962V293.339H308.482V272.354H275.635Z" fill="#3F3D56"/>
<path d="M275.635 298.814L275.12 300.867H262.324L261.553 298.814H228.962V319.799H308.482V298.814H275.635Z" fill="#3F3D56"/>
<path d="M169.551 203.695H142.588L143.501 191.834H168.637L169.551 203.695Z" fill="#E6E6E6"/>
<path d="M171.379 202.327H141.216V205.064H171.379V202.327Z" fill="#E6E6E6"/>
<path d="M207.711 115.42H104.655C103.928 115.42 103.231 115.708 102.717 116.221C102.202 116.735 101.913 117.431 101.913 118.157V180.885H210.454V118.157C210.454 117.431 210.165 116.735 209.65 116.221C209.136 115.708 208.439 115.42 207.711 115.42Z" fill="#3F3D56"/>
<path d="M101.913 180.885V191.15C101.913 191.876 102.202 192.572 102.717 193.085C103.231 193.598 103.928 193.887 104.655 193.887H207.711C208.439 193.887 209.136 193.598 209.65 193.085C210.165 192.572 210.454 191.876 210.454 191.15V180.885H101.913Z" fill="#E6E6E6"/>
<path d="M205.198 121.122H107.398V175.867H205.198V121.122Z" fill="white"/>
<path d="M156.298 190.009C157.812 190.009 159.04 188.784 159.04 187.272C159.04 185.76 157.812 184.535 156.298 184.535C154.783 184.535 153.556 185.76 153.556 187.272C153.556 188.784 154.783 190.009 156.298 190.009Z" fill="#3F3D56"/>
<path d="M388.231 325.73C378.243 326.368 367.36 325.693 355.783 325.73V299.27C365.985 300.855 376.864 300.693 388.231 299.27V325.73Z" fill="#3F3D56"/>
<path d="M373.149 301.646H370.407L371.322 248.175H372.235L373.149 301.646Z" fill="#3F3D56"/>
<path d="M385.489 302.007H382.747L383.661 248.536H384.575L385.489 302.007Z" fill="#3F3D56"/>
<path d="M362.181 302.007H359.439L360.353 248.536H361.267L362.181 302.007Z" fill="#3F3D56"/>
<path d="M375.435 213.96L379.861 207.131C378.548 203.511 377.032 199.968 375.32 196.519L372.457 198.827L374.724 195.33C372.564 191.086 370.864 188.412 370.864 188.412C370.864 188.412 361.987 202.377 359.021 217.162L364.701 225.925L358.413 220.855C358.189 222.578 358.074 224.312 358.068 226.049C358.068 243.56 363.797 257.755 370.864 257.755C377.932 257.755 383.661 243.56 383.661 226.049C383.661 220.621 382.43 214.941 380.733 209.688L375.435 213.96Z" fill="#E6E6E6"/>
<path d="M387.774 214.872L392.2 208.043C390.888 204.424 389.371 200.881 387.659 197.432L384.797 199.739L387.063 196.243C384.903 191.999 383.204 189.325 383.204 189.325C383.204 189.325 374.326 203.289 371.36 218.075L377.041 226.838L370.752 221.768C370.528 223.49 370.413 225.225 370.407 226.962C370.407 244.472 376.136 258.668 383.204 258.668C390.271 258.668 396 244.472 396 226.962C396 221.533 394.77 215.854 393.073 210.6L387.774 214.872Z" fill="#6C63FF"/>
<path d="M364.466 214.872L368.893 208.043C367.58 204.424 366.064 200.881 364.351 197.432L361.489 199.739L363.756 196.243C361.596 191.999 359.896 189.325 359.896 189.325C359.896 189.325 351.019 203.289 348.053 218.075L353.733 226.838L347.445 221.768C347.221 223.49 347.106 225.225 347.1 226.962C347.1 244.472 352.829 258.668 359.896 258.668C366.963 258.668 372.692 244.472 372.692 226.962C372.692 221.533 371.462 215.854 369.765 210.6L364.466 214.872Z" fill="#6C63FF"/>
<path d="M165.483 136.575H139.113V138.086H165.483V136.575Z" fill="#3F3D56"/>
<path d="M179.834 142.087H139.113V143.598H179.834V142.087Z" fill="#6C63FF"/>
<path d="M172.3 147.28H139.113V148.791H172.3V147.28Z" fill="#6C63FF"/>
<path d="M158.487 152.454H139.113V153.965H158.487V152.454Z" fill="#3F3D56"/>
<path d="M168.353 157.627H139.113V159.138H168.353V157.627Z" fill="#3F3D56"/>
<path d="M130.323 136.038H127.094V139.261H130.323V136.038Z" fill="#3F3D56"/>
<path d="M130.323 141.231H127.094V144.454H130.323V141.231Z" fill="#6C63FF"/>
<path d="M130.323 146.424H127.094V149.647H130.323V146.424Z" fill="#6C63FF"/>
<path d="M130.323 151.617H127.094V154.84H130.323V151.617Z" fill="#3F3D56"/>
<path d="M130.323 156.81H127.094V160.033H130.323V156.81Z" fill="#3F3D56"/>
<path d="M200.667 133.715H186.829C185.885 128.265 185.885 122.694 186.829 117.245H200.667C199.108 122.624 199.108 128.335 200.667 133.715Z" fill="#6C63FF"/>
<path d="M99.9771 166.725L94.2842 165.34C92.1117 165.342 89.9659 164.863 88.0018 163.936C86.0378 163.009 84.3047 161.658 82.928 159.981C81.5513 158.303 80.5655 156.341 80.0417 154.236C79.518 152.132 79.4695 149.937 79.8997 147.812C79.8933 142.74 81.9055 137.873 85.4937 134.282C89.0818 130.692 93.9519 128.671 99.0326 128.664H99.0327C104.113 128.658 108.989 130.667 112.586 134.248C116.183 137.83 118.207 142.692 118.214 147.764V147.764C121.442 158.976 111.332 169.488 99.9771 166.725Z" fill="#2F2E41"/>
<path d="M106.196 168.724C113.97 168.724 120.272 162.433 120.272 154.673C120.272 146.913 113.97 140.622 106.196 140.622C98.4217 140.622 92.1196 146.913 92.1196 154.673C92.1196 162.433 98.4217 168.724 106.196 168.724Z" fill="#FFB8B8"/>
<path d="M97.0156 162.004C97.0156 162.004 92.7316 176.666 90.2836 177.888C87.8356 179.11 109.868 180.943 109.868 180.943C109.868 180.943 109.256 166.891 110.48 165.67C111.704 164.448 97.0156 162.004 97.0156 162.004Z" fill="#FFB8B8"/>
<path d="M119.048 252.421C119.048 252.421 146.588 249.977 150.26 259.141C153.932 268.305 147.812 322.677 147.812 322.677H136.184V278.08C136.184 278.08 86.6036 264.011 86.6036 259.124C86.6036 254.237 119.048 252.421 119.048 252.421Z" fill="#2F2E41"/>
<path d="M145.976 320.234L152.096 322.677C152.096 322.677 159.44 322.066 156.38 327.565C155.504 329.161 154.279 330.539 152.796 331.597C151.312 332.654 149.609 333.365 147.812 333.674C147.812 333.674 136.184 337.95 135.572 333.674C134.96 329.398 138.632 320.845 138.632 320.845L145.976 320.234Z" fill="#2F2E41"/>
<path d="M103.748 252.421C103.748 252.421 131.288 249.977 134.96 259.141C138.632 268.305 132.512 322.677 132.512 322.677H120.884V278.08C120.884 278.08 85.6895 269.942 85.6895 265.055C85.6895 262.759 83.2914 251.09 87.5176 248.631C92.2875 245.857 103.748 252.421 103.748 252.421Z" fill="#2F2E41"/>
<path d="M130.676 320.234L136.796 322.677C136.796 322.677 144.14 322.066 141.08 327.565C140.204 329.161 138.979 330.539 137.495 331.597C136.012 332.654 134.308 333.365 132.512 333.674C132.512 333.674 120.884 337.95 120.272 333.674C119.66 329.398 123.332 320.845 123.332 320.845L130.676 320.234Z" fill="#2F2E41"/>
<path d="M90.8956 176.055L109.288 178.051C112.126 178.359 114.795 179.554 116.912 181.467C119.029 183.379 120.487 185.91 121.077 188.699L128.228 222.486C128.228 222.486 130.676 256.086 125.78 257.919C120.884 259.752 114.152 250.588 104.972 251.81C95.7916 253.032 83.8575 255.781 83.8575 255.781C83.8575 255.781 81.9623 195.637 81.7155 190.717C81.222 180.883 90.8956 176.055 90.8956 176.055Z" fill="#575A89"/>
<path d="M134.462 254.167L142.012 258.605C142.012 258.605 155.558 256.665 155.136 261.418C154.713 266.171 139.926 265.252 139.926 265.252L130.827 259.655L134.462 254.167Z" fill="#FFB8B8"/>
<path d="M78.874 143.245C83.8957 143.245 87.9666 139.181 87.9666 134.168C87.9666 129.155 83.8957 125.092 78.874 125.092C73.8523 125.092 69.7814 129.155 69.7814 134.168C69.7814 139.181 73.8523 143.245 78.874 143.245Z" fill="#2F2E41"/>
<path d="M87.2636 129.289C87.2626 127.946 86.963 126.621 86.3865 125.407C85.81 124.194 84.971 123.124 83.93 122.274C82.889 121.424 81.6719 120.815 80.3666 120.491C79.0613 120.168 77.7002 120.137 76.3817 120.402C77.5451 119.853 78.812 119.557 80.0985 119.534C81.3851 119.51 82.6619 119.76 83.8446 120.266C85.0274 120.772 86.089 121.523 86.9592 122.469C87.8295 123.415 88.4886 124.535 88.8928 125.754C89.2971 126.974 89.4374 128.265 89.3044 129.543C89.1713 130.82 88.7681 132.055 88.1212 133.165C87.4743 134.276 86.5987 135.236 85.5521 135.984C84.5055 136.731 83.3119 137.248 82.0502 137.5C83.6103 136.767 84.929 135.605 85.8522 134.151C86.7754 132.697 87.265 131.01 87.2636 129.289Z" fill="#2F2E41"/>
<path d="M95.064 134.436L107.322 132.183L116.749 138.081C119.067 139.531 120.919 141.615 122.087 144.084C123.255 146.553 123.688 149.305 123.337 152.012L113.895 149.624L111.781 144.332L109.263 148.451L96.0977 165.364L88.706 160.665L82.1162 150.357L95.064 134.436Z" fill="#2F2E41"/>
<path d="M105.159 181.252L111.279 178.197C111.279 178.197 124.131 180.03 126.579 188.583C129.027 197.136 140.043 256.396 140.043 256.396L129.639 261.283L114.951 225.239L105.159 181.252Z" fill="#575A89"/>
<path opacity="0.2" d="M110.368 205.292L116.494 229.025L127.356 255.68L126.979 256.603L114.024 229.471L110.368 205.292Z" fill="black"/>
<path d="M64.6654 336.178L62.5053 335.435L83.4308 273.39L86.4557 274.431L64.6654 336.178Z" fill="#3F3D56"/>
<path d="M144.645 336.178L146.806 335.435L125.88 273.39L122.855 274.431L144.645 336.178Z" fill="#3F3D56"/>
<path d="M100.429 348.992L102.714 349L103.424 276.471L100.225 276.46L100.429 348.992Z" fill="#3F3D56"/>
<path d="M59.3766 236.934L65.6445 262.222C66.5223 265.763 68.3498 268.999 70.9308 271.581C73.5119 274.164 76.7489 275.996 80.2944 276.881H80.2944C97.7748 281.244 116.076 281.126 133.499 276.539L142.857 274.075C148.294 272.644 152.383 267.982 152.77 262.382C152.927 260.402 152.568 258.415 151.728 256.615C151.691 256.537 151.654 256.46 151.617 256.384C150.397 253.882 148.514 251.76 146.173 250.249C143.831 248.737 141.121 247.894 138.334 247.81L128.42 247.491L92.3163 231.524C92.3163 231.524 79.8992 225.228 69.6913 224.523C62.95 224.057 57.7536 230.385 59.3766 236.934Z" fill="#6C63FF"/>
<path d="M279.462 157.39H243.815V205.748H279.462V157.39Z" fill="#E6E6E6"/>
<path d="M275.349 162.97H247.928V200.168H275.349V162.97Z" fill="white"/>
<path d="M272.006 172.705H258.72V174.216H272.006V172.705Z" fill="#3F3D56"/>
<path d="M254.501 171.868H251.272V175.091H254.501V171.868Z" fill="#3F3D56"/>
<path d="M272.006 179.091H258.72V180.603H272.006V179.091Z" fill="#3F3D56"/>
<path d="M254.501 178.255H251.272V181.478H254.501V178.255Z" fill="#3F3D56"/>
<path d="M272.006 185.478H258.72V186.989H272.006V185.478Z" fill="#3F3D56"/>
<path d="M254.501 184.642H251.272V187.865H254.501V184.642Z" fill="#3F3D56"/>
<path d="M263.01 160.128C263.01 159.372 262.396 158.759 261.639 158.759C260.882 158.759 260.268 159.372 260.268 160.128C260.268 160.884 260.882 161.496 261.639 161.496C262.396 161.496 263.01 160.884 263.01 160.128Z" fill="#3F3D56"/>
</g>
<defs>
<clipPath id="clip0">
<rect width="396" height="349" fill="white"/>
</clipPath>
</defs>
</svg>
