<svg width="493" height="316" viewBox="0 0 493 316" fill="none" xmlns="http://www.w3.org/2000/svg">
<g clip-path="url(#clip0)">
<path opacity="0.1" d="M376.694 316C424.056 316 462.45 307.405 462.45 296.802C462.45 286.2 424.056 277.605 376.694 277.605C329.333 277.605 290.939 286.2 290.939 296.802C290.939 307.405 329.333 316 376.694 316Z" fill="#6C63FF"/>
<g opacity="0.1">
<path opacity="0.1" d="M279.161 11.9605C279.161 81.652 322.901 138.044 376.976 138.044L279.161 11.9605Z" fill="#6C63FF"/>
</g>
<path opacity="0.1" d="M280.233 58.0524C248.633 58.2935 218.27 51.1547 189.238 43.1989C160.206 35.2431 131.411 26.2961 100.45 22.6441C80.5207 20.2913 57.8402 20.6619 42.1764 29.7874C27.1023 38.5647 22.6403 52.9539 20.4383 66.2314C18.7813 76.2231 17.9729 86.7058 23.806 95.7956C27.8347 102.104 34.7934 107.283 39.7065 113.292C56.7951 134.2 46.1962 161.107 29.2506 182.72C21.3048 192.859 12.0102 202.587 5.98051 213.293C-0.0491689 223.999 -2.5861 236.107 3.39445 246.599C9.32586 256.992 22.8413 264.457 37.3795 269.569C66.916 279.882 101.343 281.936 134.864 282.587C209.069 284.038 283.466 279.627 357.663 275.221C385.118 273.587 412.698 271.944 439.613 267.564C454.557 265.131 469.949 261.564 480.588 253.898C494.099 244.166 496.971 228.401 487.287 217.142C471.043 198.261 427.884 194.962 416.271 174.492C409.88 163.224 415.57 150.218 423.864 139.258C441.703 115.757 472.258 94.6125 472.995 68.4414C473.486 50.4716 457.809 33.0465 434.28 25.3898C409.603 17.3537 375.863 19.6797 358.417 35.0377C340.449 50.8511 308.139 57.8426 280.233 58.0524Z" fill="#6C63FF"/>
<path d="M422.926 13.9249V245.371C422.926 252.255 416.28 257.872 408.08 257.872H93.9022C85.7019 257.872 79.0603 252.273 79.0603 245.371V13.9249C79.0603 7.02718 85.7019 0 93.9022 0L408.04 0.763436C416.227 0.763436 422.926 7.02718 422.926 13.9249Z" fill="white"/>
<path d="M422.926 13.9963V24.7112H79.0603V13.9963C79.0603 10.2851 80.5349 6.72571 83.1599 4.10102C85.7849 1.47633 89.3452 0.00119521 93.0581 1.1391e-05H408.902C410.742 -0.00233531 412.565 0.357927 414.266 1.0602C415.967 1.76248 417.513 2.793 418.816 4.09285C420.118 5.39271 421.152 6.93641 421.857 8.63571C422.562 10.335 422.926 12.1566 422.926 13.9963Z" fill="#3F3D56"/>
<path opacity="0.8" d="M95.7156 17.3001C98.4488 17.3001 100.664 15.0854 100.664 12.3534C100.664 9.62139 98.4488 7.40668 95.7156 7.40668C92.9825 7.40668 90.7668 9.62139 90.7668 12.3534C90.7668 15.0854 92.9825 17.3001 95.7156 17.3001Z" fill="#FA5959"/>
<path opacity="0.8" d="M110.111 17.3001C112.844 17.3001 115.06 15.0854 115.06 12.3534C115.06 9.62139 112.844 7.40668 110.111 7.40668C107.378 7.40668 105.162 9.62139 105.162 12.3534C105.162 15.0854 107.378 17.3001 110.111 17.3001Z" fill="#FED253"/>
<path opacity="0.8" d="M124.506 17.3001C127.239 17.3001 129.455 15.0854 129.455 12.3534C129.455 9.62139 127.239 7.40668 124.506 7.40668C121.773 7.40668 119.557 9.62139 119.557 12.3534C119.557 15.0854 121.773 17.3001 124.506 17.3001Z" fill="#8CCF4D"/>
<path opacity="0.2" d="M231.558 76.2097H207.944C205.83 76.2097 204.116 77.9227 204.116 80.0358V87.2147C204.116 89.3279 205.83 91.0409 207.944 91.0409H231.558C233.672 91.0409 235.385 89.3279 235.385 87.2147V80.0358C235.385 77.9227 233.672 76.2097 231.558 76.2097Z" fill="#6C63FF"/>
<path opacity="0.2" d="M294.909 76.2097H271.295C269.181 76.2097 267.468 77.9227 267.468 80.0358V87.2147C267.468 89.3279 269.181 91.0409 271.295 91.0409H294.909C297.023 91.0409 298.737 89.3279 298.737 87.2147V80.0358C298.737 77.9227 297.023 76.2097 294.909 76.2097Z" fill="#6C63FF"/>
<path d="M219.663 90.706L250.964 131.561L283.207 90.514" stroke="#3F3D56" stroke-miterlimit="10"/>
<path opacity="0.1" d="M271.036 130.253H230.888C228.774 130.253 227.06 131.966 227.06 134.079V149.102C227.06 151.215 228.774 152.928 230.888 152.928H271.036C273.15 152.928 274.864 151.215 274.864 149.102V134.079C274.864 131.966 273.15 130.253 271.036 130.253Z" fill="black"/>
<path d="M270.067 130.717H231.861C229.747 130.717 228.034 132.43 228.034 134.543V148.647C228.034 150.76 229.747 152.473 231.861 152.473H270.067C272.181 152.473 273.895 150.76 273.895 148.647V134.543C273.895 132.43 272.181 130.717 270.067 130.717Z" fill="#6C63FF"/>
<path d="M219.878 76.2097L219.471 61.7669" stroke="#3F3D56" stroke-miterlimit="10"/>
<path d="M301.582 62.4723L283.207 76.2097L263.881 62.4723" stroke="#3F3D56" stroke-miterlimit="10"/>
<path opacity="0.2" d="M231.383 47.6366H207.769C205.655 47.6366 203.942 49.3496 203.942 51.4627V58.6417C203.942 60.7548 205.655 62.4678 207.769 62.4678H231.383C233.497 62.4678 235.211 60.7548 235.211 58.6417V51.4627C235.211 49.3496 233.497 47.6366 231.383 47.6366Z" fill="#6C63FF"/>
<path opacity="0.2" d="M313.387 47.6366H289.773C287.659 47.6366 285.945 49.3496 285.945 51.4627V58.6417C285.945 60.7548 287.659 62.4678 289.773 62.4678H313.387C315.501 62.4678 317.215 60.7548 317.215 58.6417V51.4627C317.215 49.3496 315.501 47.6366 313.387 47.6366Z" fill="#6C63FF"/>
<path opacity="0.2" d="M275.69 47.6366H252.076C249.962 47.6366 248.249 49.3496 248.249 51.4627V58.6417C248.249 60.7548 249.962 62.4678 252.076 62.4678H275.69C277.804 62.4678 279.518 60.7548 279.518 58.6417V51.4627C279.518 49.3496 277.804 47.6366 275.69 47.6366Z" fill="#6C63FF"/>
<path d="M250.964 152.468L250.844 191.98" stroke="#3F3D56" stroke-miterlimit="10"/>
<path d="M206.537 220.151L250.754 206.476L295.151 220.053" stroke="#3F3D56" stroke-miterlimit="10"/>
<path opacity="0.2" d="M262.653 191.98H239.039C236.925 191.98 235.211 193.693 235.211 195.806V202.985C235.211 205.098 236.925 206.811 239.039 206.811H262.653C264.767 206.811 266.481 205.098 266.481 202.985V195.806C266.481 193.693 264.767 191.98 262.653 191.98Z" fill="#6C63FF"/>
<path opacity="0.2" d="M386.52 130.396V106.792C386.52 104.679 384.807 102.966 382.693 102.966H375.511C373.397 102.966 371.683 104.679 371.683 106.792V130.396C371.683 132.509 373.397 134.222 375.511 134.222H382.693C384.807 134.222 386.52 132.509 386.52 130.396Z" fill="#6C63FF"/>
<path opacity="0.2" d="M371.683 155.736V179.341C371.683 181.454 373.397 183.167 375.511 183.167H382.693C384.807 183.167 386.52 181.454 386.52 179.341V155.736C386.52 153.623 384.807 151.91 382.693 151.91H375.511C373.397 151.91 371.683 153.623 371.683 155.736Z" fill="#6C63FF"/>
<path opacity="0.2" d="M306.96 219.95H283.346C281.232 219.95 279.518 221.663 279.518 223.776V230.955C279.518 233.068 281.232 234.781 283.346 234.781H306.96C309.074 234.781 310.788 233.068 310.788 230.955V223.776C310.788 221.663 309.074 219.95 306.96 219.95Z" fill="#6C63FF"/>
<path opacity="0.2" d="M194.732 234.786H218.346C220.46 234.786 222.174 233.073 222.174 230.96V223.781C222.174 221.667 220.46 219.954 218.346 219.954H194.732C192.618 219.954 190.904 221.667 190.904 223.781V230.96C190.904 233.073 192.618 234.786 194.732 234.786Z" fill="#6C63FF"/>
<path opacity="0.2" d="M239.816 234.786H263.43C265.544 234.786 267.258 233.073 267.258 230.96V223.781C267.258 221.667 265.544 219.954 263.43 219.954H239.816C237.702 219.954 235.988 221.667 235.988 223.781V230.96C235.988 233.073 237.702 234.786 239.816 234.786Z" fill="#6C63FF"/>
<path d="M357.761 143.066L371.678 167.393" stroke="#3F3D56" stroke-miterlimit="10"/>
<path d="M328.332 142.767H342.941" stroke="#3F3D56" stroke-miterlimit="10"/>
<path d="M273.895 141.593L313.771 142.767" stroke="#3F3D56" stroke-miterlimit="10"/>
<path d="M371.678 118.592L357.828 142.959" stroke="#3F3D56" stroke-miterlimit="10"/>
<path opacity="0.2" d="M328.609 154.477V130.873C328.609 128.76 326.895 127.047 324.781 127.047H317.599C315.485 127.047 313.771 128.76 313.771 130.873V154.477C313.771 156.591 315.485 158.304 317.599 158.304H324.781C326.895 158.304 328.609 156.591 328.609 154.477Z" fill="#6C63FF"/>
<path opacity="0.2" d="M357.761 154.866V131.262C357.761 129.149 356.047 127.436 353.933 127.436H346.751C344.637 127.436 342.923 129.149 342.923 131.262V154.866C342.923 156.979 344.637 158.692 346.751 158.692H353.933C356.047 158.692 357.761 156.979 357.761 154.866Z" fill="#6C63FF"/>
<path opacity="0.2" d="M130.246 130.391V106.787C130.246 104.674 128.532 102.961 126.418 102.961H119.236C117.122 102.961 115.408 104.674 115.408 106.787V130.391C115.408 132.504 117.122 134.217 119.236 134.217H126.418C128.532 134.217 130.246 132.504 130.246 130.391Z" fill="#6C63FF"/>
<path opacity="0.2" d="M115.408 155.736V179.341C115.408 181.454 117.122 183.167 119.236 183.167H126.418C128.532 183.167 130.246 181.454 130.246 179.341V155.736C130.246 153.623 128.532 151.91 126.418 151.91H119.236C117.122 151.91 115.408 153.623 115.408 155.736Z" fill="#6C63FF"/>
<path d="M144.167 143.066L130.245 167.393" stroke="#3F3D56" stroke-miterlimit="10"/>
<path d="M173.592 142.767H158.987" stroke="#3F3D56" stroke-miterlimit="10"/>
<path d="M228.034 141.593L188.157 142.767" stroke="#3F3D56" stroke-miterlimit="10"/>
<path d="M130.245 118.592L144.096 142.959" stroke="#3F3D56" stroke-miterlimit="10"/>
<path opacity="0.2" d="M188.157 154.482V130.878C188.157 128.765 186.443 127.052 184.329 127.052H177.147C175.033 127.052 173.32 128.765 173.32 130.878V154.482C173.32 156.595 175.033 158.308 177.147 158.308H184.329C186.443 158.308 188.157 156.595 188.157 154.482Z" fill="#6C63FF"/>
<path opacity="0.2" d="M159.005 154.866V131.262C159.005 129.149 157.291 127.436 155.177 127.436H147.995C145.881 127.436 144.167 129.149 144.167 131.262V154.866C144.167 156.979 145.881 158.692 147.995 158.692H155.177C157.291 158.692 159.005 156.979 159.005 154.866Z" fill="#6C63FF"/>
<path d="M48.2463 224.075C48.2463 246.505 62.3245 264.658 79.7213 264.658L48.2463 224.075Z" fill="#46455B"/>
<path d="M79.7213 264.653C79.7213 241.969 95.4342 223.615 114.85 223.615L79.7213 264.653Z" fill="#6C63FF"/>
<path d="M59.6537 226.107C59.6537 247.411 68.6312 264.653 79.7214 264.653L59.6537 226.107Z" fill="#6C63FF"/>
<path d="M79.7213 264.653C79.7213 235.67 97.8818 212.217 120.321 212.217L79.7213 264.653Z" fill="#46455B"/>
<path opacity="0.1" d="M78.3546 272.404C82.6763 272.404 86.1798 271.812 86.1798 271.082C86.1798 270.352 82.6763 269.761 78.3546 269.761C74.0329 269.761 70.5294 270.352 70.5294 271.082C70.5294 271.812 74.0329 272.404 78.3546 272.404Z" fill="#6C63FF"/>
<path d="M73.1021 264.939C73.1021 264.939 77.5685 264.801 78.9084 263.845C80.2483 262.89 85.7733 261.742 86.1083 263.278C86.4433 264.814 92.8079 270.917 87.7743 270.957C82.7406 270.997 76.0633 270.172 74.7234 269.355C73.3834 268.538 73.1021 264.939 73.1021 264.939Z" fill="#A8A8A8"/>
<path opacity="0.2" d="M87.8681 270.421C82.8299 270.462 76.1616 269.64 74.8172 268.819C73.7943 268.198 73.3879 265.966 73.2494 264.935H73.1021C73.1021 264.935 73.3834 268.533 74.7278 269.35C76.0722 270.167 82.7406 270.993 87.7787 270.953C89.2348 270.953 89.735 270.421 89.7082 269.658C89.5073 270.127 88.9534 270.413 87.8681 270.421Z" fill="black"/>
<path d="M427.089 289.655L414.73 271.743C414.73 271.743 414.498 267.31 413.69 266.27C412.881 265.229 413.515 262.93 413.515 262.93C413.515 262.93 414.382 261.662 413.632 261.551C412.881 261.439 413.515 258.613 413.515 258.613L413.457 254.117C413.457 254.117 414.15 249.8 413.573 248.76C413.405 248.479 413.321 248.156 413.332 247.829C413.342 247.502 413.446 247.185 413.632 246.916C413.632 246.916 414.324 244.438 413.632 243.791C412.939 243.143 413.109 239.299 413.283 236.25C413.457 233.201 412.073 231.468 412.073 231.009C412.073 230.549 407.508 226.053 407.508 225.651C407.508 225.249 404.623 223.58 402.89 223.115C401.157 222.651 400.29 222.312 400.348 222.08C400.406 221.847 397.633 220.928 397.633 220.928C397.633 220.928 395.208 220.758 394.283 219.548C393.358 218.338 390.531 217.986 390.455 217.977C390.455 217.896 390.415 217.816 390.402 217.736L390.348 217.477C390.567 217.111 390.768 216.735 390.951 216.347L391.112 215.994C392.128 215.998 393.121 215.686 393.952 215.101C394.36 214.76 394.693 214.339 394.932 213.863C395.17 213.388 395.308 212.869 395.337 212.338C395.385 211.274 395.153 210.216 394.663 209.271C394.153 208.231 393.412 207.159 393.667 206.034C393.778 205.547 394.069 205.141 394.22 204.646C394.444 203.717 394.295 202.738 393.805 201.918C393.358 201.083 392.76 200.346 392.273 199.534C391.651 198.502 391.237 197.358 391.054 196.167C391.016 195.534 390.865 194.912 390.607 194.332C390.346 193.923 390 193.575 389.593 193.31C387.786 192.019 385.605 191.359 383.385 191.43C381.813 191.484 380.258 191.908 378.686 191.716C377.753 191.552 376.834 191.311 375.939 190.997C374.005 190.426 371.768 190.189 370.084 191.297C368.4 192.404 367.726 194.582 366.582 196.288C365.568 197.797 364.09 199.06 363.322 200.659C363.322 200.627 363.322 200.596 363.344 200.565C363.151 200.935 363.002 201.326 362.897 201.73C362.603 202.985 362.848 204.297 363.152 205.547C363.313 206.195 363.527 206.887 364.085 207.253C364.644 207.619 365.425 207.534 366.104 207.65C366.077 207.762 366.051 207.869 366.028 207.981C365.336 211.226 365.894 214.613 367.591 217.464C369.289 220.316 372.001 222.422 375.185 223.361C375.185 223.477 375.185 223.597 375.185 223.709C375.185 224.053 375.158 224.383 375.122 224.7C375.122 224.7 369.316 223.508 367.757 224.312C366.198 225.115 363.134 225.754 362.674 226.214C362.214 226.674 361.057 226.33 360.017 229.035C358.976 231.741 358.864 234.509 357.533 235.772C356.202 237.036 355.514 237.906 355.456 238.826C355.398 239.746 355.626 239.978 355.108 240.268C354.59 240.558 353.839 241.764 354.067 242.224C354.067 242.224 354.358 243.375 353.433 243.951C353.16 244.144 352.941 244.405 352.8 244.708C352.658 245.011 352.597 245.346 352.625 245.679C352.625 245.679 352.276 246.947 351.468 247.233C350.659 247.518 350.128 249.425 350.128 249.425L347.511 252.434L342.316 246.693C341.927 246.264 341.384 246.006 340.805 245.977C340.227 245.948 339.66 246.149 339.23 246.536L336.724 248.858C335.74 249.095 334.851 249.624 334.174 250.376C333.613 250.945 333.16 251.611 332.834 252.34L331.44 253.599C331.222 253.793 331.046 254.029 330.922 254.293C330.799 254.557 330.73 254.844 330.721 255.135C330.54 255.522 330.478 255.955 330.542 256.377C330.607 256.8 330.795 257.194 331.083 257.51L334.406 261.189V261.22C333.226 261.318 332.104 261.775 331.19 262.528C326.224 266.904 326.165 270.935 326.916 272.797C327.666 274.658 333.959 281.726 333.959 281.726C333.959 281.726 337.617 286.481 342.892 289.007L342.856 289.048C342.749 289.159 342.647 289.28 342.544 289.409L342.459 289.521L342.379 289.632L342.285 289.771L342.213 289.882L342.111 290.048C342.092 290.086 342.072 290.124 342.048 290.159C342.008 290.231 341.968 290.307 341.932 290.383L341.892 290.458C341.843 290.557 341.798 290.664 341.749 290.771C341.7 290.878 341.718 290.851 341.704 290.887C341.691 290.923 341.642 291.039 341.615 291.119L341.561 291.266C341.534 291.338 341.512 291.414 341.485 291.49C341.458 291.566 341.454 291.597 341.436 291.655L341.369 291.905L341.329 292.061C341.293 292.195 341.266 292.334 341.235 292.476L341.208 292.642C341.208 292.735 341.173 292.834 341.159 292.936C341.146 293.039 341.137 293.075 341.128 293.146C341.119 293.218 341.128 293.334 341.092 293.432C341.057 293.53 341.092 293.579 341.07 293.651C341.048 293.722 341.07 293.869 341.07 293.981C341.07 294.093 341.07 294.11 341.07 294.182C341.07 294.36 341.07 294.548 341.048 294.74C340.931 301.477 341.325 302.455 341.325 302.455C341.325 302.455 342.142 304.602 344.393 304.754C344.723 304.777 345.055 304.759 345.38 304.7C348.381 304.182 355.429 302.973 357.913 303.437C359.405 303.714 362.169 303.303 364.135 302.932L364.657 302.83L365.014 303.977L366.158 303.665L367.127 304.223L367.739 304.575C368.878 308.437 373.505 307.12 373.505 307.12L374.604 307.754L385.77 308.04C387.021 308.799 388.344 309.434 389.718 309.937C389.901 309.991 390.088 310.031 390.277 310.058C391.309 310.14 392.346 310.159 393.381 310.116C394.238 310.116 394.899 310.058 394.899 310.058C394.899 310.058 394.783 307.035 394.622 303.647C398.879 303.468 402.662 303.2 404.944 302.803C410.867 301.758 413.346 296.329 414.261 293.436C414.534 294.613 414.728 295.806 414.842 297.008C415.085 298.068 415.394 299.112 415.766 300.133C416.093 300.951 416.521 301.725 417.039 302.437C421.43 300.941 418.772 298.695 417.848 297.718C416.923 296.74 418.482 295.932 418.482 295.932C418.482 295.932 419.697 295.124 419.581 294.374C419.465 293.624 419.407 292.82 423.333 292.878C427.259 292.936 427.089 289.655 427.089 289.655ZM366.104 252.88C366.153 253.211 366.703 256.756 367.199 257.689C367.336 258.311 367.379 258.951 367.328 259.586C365.001 259.403 362.576 259.3 362.576 259.3C362.646 259.385 362.69 259.49 362.701 259.6L362.335 259.515C362.165 259.475 361.986 259.434 361.803 259.385L366.091 252.871L366.104 252.88ZM357.618 266.386L361.638 267.024L361.977 267.078C361.862 267.706 361.792 268.341 361.767 268.98C361.767 269.038 361.857 269.109 361.986 269.194C361.932 269.508 361.906 269.826 361.91 270.145C361.973 270.466 363.858 271.154 366.019 271.725C365.988 271.841 365.957 271.948 365.93 272.056C364.023 271.051 361.017 270.582 360.669 269.823C360.32 269.064 350.123 265.524 350.123 265.524C350.123 265.524 349.748 265.323 349.105 265.015L351.785 265.524L352.526 265.448C354.199 265.869 355.896 266.183 357.609 266.386H357.618Z" fill="url(#paint0_linear)"/>
<path d="M413.944 292.159C413.944 292.159 412.341 301.825 404.212 303.258C396.083 304.691 368.954 304.401 368.954 304.401C368.954 304.401 353.442 302.169 347.832 289.07C342.222 275.971 338.618 270.765 343.424 270.529C348.23 270.292 374.162 279.284 375.649 279.4C377.136 279.516 415.373 259.488 413.944 292.159Z" fill="#65617D"/>
<path opacity="0.05" d="M413.944 292.159C413.944 292.159 412.341 301.825 404.212 303.258C396.083 304.691 368.954 304.401 368.954 304.401C368.954 304.401 353.442 302.169 347.832 289.07C342.222 275.971 338.618 270.765 343.424 270.529C348.23 270.292 374.162 279.284 375.649 279.4C377.136 279.516 415.373 259.488 413.944 292.159Z" fill="black"/>
<path d="M341.19 302.915C341.19 302.915 341.999 305.044 344.228 305.2C344.555 305.223 344.883 305.205 345.206 305.147C348.185 304.629 355.166 303.428 357.627 303.888C359.11 304.16 361.848 303.754 363.8 303.388C365.095 303.142 366.033 302.915 366.033 302.915C366.033 302.915 363.746 295.325 363.456 295.075C363.165 294.825 353.156 288.824 353.156 288.824L345.21 288.271C344.147 288.435 343.188 289 342.53 289.851C341.695 290.865 340.976 292.53 340.927 295.253C340.789 301.941 341.19 302.915 341.19 302.915Z" fill="#3F3D56"/>
<path opacity="0.05" d="M341.191 302.915C341.191 302.915 341.999 305.044 344.228 305.2C343.451 304.201 342.732 303.157 342.075 302.075L342.115 296.526C341.955 295.004 342.154 293.466 342.697 292.035C343.24 290.604 344.112 289.321 345.242 288.289H345.21C345.21 288.289 341.034 288.574 340.918 295.271C340.802 301.968 341.191 302.915 341.191 302.915Z" fill="black"/>
<path opacity="0.1" d="M375.582 290.784L382.965 285.007L394.578 273.565C394.578 273.565 393.323 273.502 391.429 273.422C390.982 273.721 389.642 274.663 389.589 275.81C389.535 277.212 386.462 275.908 384.845 276.703C383.229 277.498 375.421 287.543 374.046 287.472C372.67 287.4 371.585 286.775 371.013 287.748L370.973 287.811L375.582 290.784Z" fill="black"/>
<path opacity="0.1" d="M342.531 289.847C342.794 289.972 343.062 290.097 343.33 290.213C348.94 292.615 355.867 297.651 356.381 298.566C356.698 299.124 360.713 301.562 363.813 303.388C365.108 303.142 366.046 302.914 366.046 302.914C366.046 302.914 363.759 295.325 363.469 295.075C363.179 294.825 353.17 288.824 353.17 288.824L345.21 288.271C344.148 288.433 343.189 288.998 342.531 289.847Z" fill="black"/>
<path d="M326.938 273.448C327.684 275.279 333.924 282.315 333.924 282.315C333.924 282.315 337.872 287.467 343.482 289.869C349.092 292.271 356.015 297.307 356.533 298.222C356.863 298.812 361.334 301.504 364.483 303.352L365.189 303.763L366.752 304.656L367.578 305.133C367.578 305.133 369.494 303.593 371.406 302.044C373.318 300.495 375.162 298.981 375.193 298.919C375.247 298.749 375.993 296.803 375.819 296.686C375.729 296.628 375.336 295.834 374.617 294.901C373.848 293.879 372.849 293.054 371.701 292.49C369.065 291.289 367.922 288.552 367.922 288.552C367.922 288.552 367.672 288.373 367.292 288.132C366.512 287.593 365.638 287.204 364.715 286.985C363.456 286.829 361.111 284.253 361.111 284.253C361.111 284.253 359.507 283.221 358.878 281.909C358.248 280.596 349.4 274.56 348.578 273.993L370.097 287.811L375.247 291.119L382.634 285.342L394.247 273.899C394.247 273.899 392.684 273.824 390.415 273.725C384.765 273.48 374.738 273.096 373.469 273.382C372.446 273.621 371.389 273.69 370.343 273.587C370.343 273.587 367.484 273.716 365.595 272.721C363.706 271.725 360.727 271.256 360.383 270.52C360.039 269.783 349.909 266.229 349.909 266.229C349.909 266.229 336.117 258.907 331.19 263.256C326.264 267.604 326.197 271.618 326.938 273.448Z" fill="#65617D"/>
<path d="M371.415 231.455L373.201 237.344L375.493 250.621L383.903 251.193L386.342 247.175L388.771 243.157C388.771 243.157 390.285 237.799 391.375 232.602C392.336 228.013 392.965 223.557 391.92 223.075C390.991 222.629 390.379 221.097 389.982 219.436C389.933 219.231 389.884 219.021 389.843 218.816C389.564 217.407 389.378 215.981 389.285 214.548C389.285 214.548 371.656 213.633 374.099 220.901C374.54 222.141 374.765 223.447 374.765 224.763C374.76 225.091 374.74 225.419 374.702 225.745C374.577 226.872 374.22 227.96 373.654 228.943C373.089 229.925 372.326 230.781 371.415 231.455Z" fill="#EE8E9E"/>
<path d="M367.748 230.482L368.382 240.491L369.811 249.019L371.415 252.965L372.844 274.565C372.844 274.565 386.645 276.158 390.004 274.538C390.245 274.435 390.455 274.27 390.612 274.06C394.663 267.944 393.336 250.219 393.336 250.219L394.881 238.777L393.85 232.839L391.362 232.571L389.446 232.37C389.446 232.37 388.999 232.902 388.387 233.71C386.69 235.942 383.568 240.353 383.778 242.192C384.064 244.71 383.434 247.282 382.438 247.684C381.442 248.085 380.651 248.773 380.495 248.085C380.339 247.398 380.151 247.228 380.321 246.255C380.491 245.282 379.575 242.304 379.575 242.304C379.575 242.304 378.03 238.817 378.146 237.326C378.262 235.835 377.976 234.125 377.516 233.723C377.056 233.321 376.431 232.924 376.944 231.093C377.458 229.263 374.689 225.714 374.689 225.714L367.748 230.482Z" fill="#E3E8F4"/>
<path opacity="0.1" d="M385.98 255.488L386.556 272.596L389.861 274.426C390.101 274.323 390.31 274.16 390.469 273.953C394.52 267.832 393.193 250.108 393.193 250.108L394.739 238.665L393.707 232.727L391.219 232.46C392.179 227.87 392.809 223.414 391.764 222.932C390.835 222.486 390.223 220.954 389.826 219.294L388.039 231.397C388.039 231.397 388.186 232.491 388.24 233.629C388.313 234.342 388.264 235.062 388.097 235.759C387.695 236.79 387.981 238.621 387.981 238.621C386.949 240.438 386.431 243.804 386.194 247.054C385.855 251.367 385.98 255.488 385.98 255.488Z" fill="black"/>
<path d="M389.875 219.021C389.875 219.021 392.76 219.378 393.676 220.584C394.591 221.789 396.994 221.955 396.994 221.955C396.994 221.955 399.741 222.847 399.674 223.097C399.607 223.347 400.473 223.673 402.189 224.129C403.904 224.584 406.771 226.245 406.771 226.647C406.771 227.049 411.313 231.509 411.313 231.968C411.313 232.428 412.689 234.143 412.515 237.174C412.341 240.206 412.171 244.041 412.859 244.67C413.547 245.3 412.859 247.76 412.859 247.76C412.674 248.027 412.57 248.342 412.56 248.666C412.55 248.991 412.633 249.312 412.801 249.59C413.373 250.621 412.689 254.912 412.689 254.912L412.743 259.376C412.743 259.376 412.113 262.18 412.859 262.296C413.605 262.412 412.743 263.671 412.743 263.671C412.743 263.671 412.113 265.957 412.917 266.988C413.721 268.02 413.949 272.422 413.949 272.422L426.196 290.217C426.196 290.217 426.37 293.476 422.475 293.423C418.58 293.369 418.638 294.164 418.755 294.91C418.871 295.655 417.669 296.454 417.669 296.454C417.669 296.454 416.124 297.253 417.039 298.24C417.955 299.227 420.586 301.446 416.236 302.932C415.723 302.224 415.3 301.454 414.976 300.642C414.607 299.632 414.301 298.6 414.06 297.553C414.06 297.553 413.658 293.204 412.859 292.642C412.059 292.079 412.171 289.324 412.171 289.324C412.171 289.324 413.319 287.092 411.724 286.177C410.13 285.262 386.882 272.386 386.882 272.386L386.302 255.256C386.302 255.256 385.9 242.612 388.302 238.375C388.302 238.375 388.017 236.545 388.419 235.513C388.821 234.482 388.361 231.165 388.361 231.165L389.875 219.021Z" fill="#3F3D56"/>
<path opacity="0.1" d="M374.881 225.888C374.881 225.888 369.124 224.7 367.578 225.504C366.033 226.307 363 226.932 362.54 227.392C362.08 227.852 360.941 227.504 359.909 230.196C358.878 232.888 358.766 235.629 357.448 236.893C356.131 238.156 355.443 239.009 355.385 239.924C355.327 240.839 355.559 241.067 355.045 241.357C354.532 241.648 353.786 242.844 354.014 243.299C354.241 243.755 365.917 253.827 365.917 253.827C365.917 253.827 366.493 257.662 367.007 258.635C367.52 259.608 366.435 272.993 365.291 273.913C364.148 274.832 373.018 274.743 373.018 274.743C373.018 274.743 373.416 265.957 373.76 265.502C374.104 265.046 373.532 255.68 373.532 255.68C373.532 255.68 373.474 247.67 374.22 245.554C374.966 243.438 374.881 236.402 374.881 236.402C374.881 236.402 375.537 232.178 376.337 231.192C377.136 230.205 374.881 225.888 374.881 225.888Z" fill="black"/>
<path d="M374.689 225.714C374.689 225.714 368.936 224.531 367.391 225.33C365.845 226.129 362.826 226.754 362.37 227.2C361.915 227.647 360.767 227.316 359.735 230.004C358.703 232.692 358.592 235.442 357.274 236.701C355.957 237.96 355.273 238.817 355.215 239.732C355.157 240.648 355.385 240.875 354.871 241.161C354.358 241.447 353.612 242.648 353.84 243.108C354.067 243.567 365.756 253.653 365.756 253.653C365.756 253.653 366.328 257.483 366.846 258.457C367.364 259.43 366.27 272.819 365.126 273.734C363.983 274.649 372.853 274.565 372.853 274.565C372.853 274.565 373.255 265.783 373.599 265.323C373.943 264.863 373.367 255.501 373.367 255.501C373.367 255.501 373.313 247.492 374.055 245.376C374.796 243.259 374.689 236.201 374.689 236.201C374.689 236.201 375.345 231.977 376.145 230.995C376.944 230.013 374.689 225.714 374.689 225.714Z" fill="#3F3D56"/>
<path opacity="0.1" d="M374.104 220.87C374.544 222.109 374.769 223.416 374.769 224.731C377.583 225.569 380.597 225.438 383.328 224.359C386.058 223.281 388.348 221.318 389.83 218.785C389.551 217.376 389.365 215.95 389.272 214.517C389.272 214.517 371.643 213.601 374.104 220.87Z" fill="black"/>
<path d="M365.403 211.829C365.404 215.186 366.693 218.414 369.005 220.848C371.316 223.283 374.475 224.738 377.828 224.913C381.182 225.088 384.474 223.97 387.027 221.789C389.58 219.609 391.199 216.533 391.549 213.194C391.9 209.856 390.955 206.511 388.911 203.848C386.866 201.186 383.877 199.409 380.56 198.885C377.243 198.36 373.852 199.128 371.085 201.03C368.318 202.932 366.386 205.822 365.689 209.106C365.499 210.001 365.403 210.914 365.403 211.829Z" fill="#EE8E9E"/>
<path d="M356.988 242.152L353.862 243.125C353.862 243.125 354.152 244.268 353.232 244.84C352.961 245.032 352.745 245.292 352.605 245.593C352.464 245.895 352.405 246.227 352.433 246.559C352.433 246.559 352.089 247.818 351.289 248.103C350.49 248.389 349.972 250.278 349.972 250.278L347.336 253.309C347.336 253.309 346.367 254.108 346.537 254.51C346.707 254.912 345.505 255.023 345.505 255.023L346.104 265.211L351.544 266.238L354.92 265.895L357.667 264.868L360.07 263.435L361.16 260.631L365.966 253.309L356.988 242.152Z" fill="#3F3D56"/>
<path d="M346.287 255.827C346.287 255.827 339.301 245.755 334.093 251.193C328.885 256.631 336.21 265.439 337.93 265.153C339.65 264.868 347.832 264.408 347.832 264.408L346.287 255.827Z" fill="#EE8E9E"/>
<path d="M362.969 251.606L331.64 235.623C331.302 235.45 330.888 235.584 330.715 235.922L318.439 259.964C318.266 260.303 318.4 260.717 318.739 260.889L350.067 276.873C350.405 277.045 350.82 276.911 350.992 276.573L363.269 252.531C363.441 252.193 363.307 251.779 362.969 251.606Z" fill="#3F3D56"/>
<path d="M359.842 252.883L332.48 238.923L321.956 259.534L349.318 273.494L359.842 252.883Z" fill="#6C63FF"/>
<path d="M326.183 249.179C326.462 249.179 326.688 248.953 326.688 248.675C326.688 248.396 326.462 248.17 326.183 248.17C325.905 248.17 325.679 248.396 325.679 248.675C325.679 248.953 325.905 249.179 326.183 249.179Z" fill="#E6E8EC"/>
<path d="M355.8 264.671C356.259 264.671 356.631 264.299 356.631 263.841C356.631 263.382 356.259 263.01 355.8 263.01C355.341 263.01 354.969 263.382 354.969 263.841C354.969 264.299 355.341 264.671 355.8 264.671Z" fill="#E6E8EC"/>
<path d="M341.762 257.943C341.709 265.497 357.332 267.095 357.332 267.095L361.325 267.729L363.112 268.015L363.858 260.631C363.858 260.631 363.04 260.51 362.017 260.274C360.503 259.921 358.543 259.309 358.132 258.457C357.448 257.028 341.82 250.389 341.762 257.943Z" fill="#EE8E9E"/>
<path opacity="0.1" d="M365.689 209.106C366.052 209.135 366.393 209.293 366.649 209.552C367.096 210.021 367.096 210.851 367.69 211.137C367.904 211.233 368.143 211.261 368.373 211.217C369.896 211.003 370.776 209.284 372.237 208.811C373.09 208.592 373.993 208.671 374.796 209.034C375.123 209.133 375.417 209.32 375.645 209.574C376.136 210.208 375.792 211.141 376.02 211.905C376.332 212.967 377.601 213.392 378.7 213.53C379.798 213.668 381.036 213.744 381.773 214.575C382.016 214.887 382.191 215.248 382.285 215.632C382.379 216.017 382.39 216.417 382.317 216.807C382.253 217.075 382.253 217.355 382.317 217.624C382.621 218.486 384.104 218.356 384.493 217.677C384.778 217.186 384.694 216.785 385.359 216.642C385.84 216.601 386.322 216.684 386.762 216.883C387.926 217.282 389.153 217.47 390.384 217.436C391.171 215.764 391.595 213.944 391.629 212.096C391.662 210.249 391.304 208.415 390.579 206.715C389.853 205.015 388.776 203.488 387.418 202.234C386.06 200.98 384.452 200.027 382.699 199.438C380.947 198.849 379.089 198.637 377.249 198.817C375.409 198.996 373.627 199.563 372.022 200.479C370.416 201.396 369.023 202.641 367.933 204.134C366.843 205.627 366.081 207.333 365.698 209.141L365.689 209.106Z" fill="black"/>
<path d="M382.308 217.249C382.245 216.979 382.245 216.698 382.308 216.427C382.381 216.038 382.37 215.638 382.276 215.253C382.182 214.868 382.007 214.508 381.764 214.195C381.027 213.365 379.789 213.302 378.691 213.15C377.592 212.999 376.323 212.588 376.011 211.525C375.783 210.762 376.127 209.829 375.636 209.199C375.409 208.943 375.115 208.754 374.787 208.655C373.984 208.291 373.081 208.213 372.228 208.431C370.767 208.905 369.887 210.624 368.364 210.838C368.134 210.881 367.895 210.853 367.681 210.757C367.105 210.472 367.082 209.641 366.64 209.173C365.943 208.436 364.626 208.914 363.773 208.364C363.219 208.007 363.005 207.311 362.848 206.672C362.549 205.427 362.303 204.123 362.598 202.878C363.094 200.748 364.997 199.306 366.211 197.471C367.346 195.779 367.998 193.636 369.682 192.511C371.366 191.386 373.568 191.645 375.488 192.216C376.374 192.528 377.283 192.765 378.208 192.926C379.754 193.118 381.308 192.698 382.867 192.645C385.066 192.576 387.227 193.232 389.017 194.511C389.42 194.776 389.763 195.122 390.022 195.529C390.282 196.104 390.433 196.721 390.469 197.35C390.652 198.534 391.063 199.671 391.679 200.699C392.157 201.502 392.764 202.23 393.198 203.065C393.681 203.881 393.829 204.853 393.609 205.775C393.461 206.244 393.162 206.668 393.059 207.155C392.805 208.271 393.542 209.338 394.046 210.369C394.533 211.309 394.764 212.361 394.716 213.418C394.687 213.945 394.55 214.46 394.314 214.932C394.077 215.404 393.746 215.821 393.341 216.16C392.493 216.755 391.478 217.068 390.442 217.052C389.186 217.091 387.934 216.899 386.748 216.485C386.309 216.287 385.826 216.204 385.346 216.244C384.68 216.378 384.765 216.789 384.479 217.28C384.095 217.977 382.612 218.106 382.308 217.249Z" fill="#3F3D56"/>
<path opacity="0.1" d="M375.247 291.128L382.635 285.351L394.247 273.908C394.247 273.908 392.684 273.832 390.415 273.734C389.964 274.14 389.676 274.695 389.602 275.297C389.549 276.694 386.476 275.395 384.859 276.19C383.242 276.984 375.421 287.025 374.046 286.963C372.67 286.9 371.585 286.266 371.013 287.239L370.973 287.302C370.738 287.566 370.425 287.748 370.079 287.82L375.247 291.128Z" fill="black"/>
<path d="M360.365 290.726L364.076 302.566L364.657 304.424L366.444 303.941L370.338 302.87L387.686 298.106C389.867 298.012 392.001 297.444 393.939 296.441C397.22 294.607 400.974 293.789 404.721 294.093C407.012 294.307 409.563 293.32 411.68 289.409C411.68 289.409 416.486 275.221 404.35 271.158C392.215 267.096 391.639 273.319 391.639 273.319L391.474 273.422C391.027 273.721 389.687 274.663 389.633 275.81C389.58 277.212 386.507 275.909 384.89 276.703C383.273 277.498 375.421 287.543 374.046 287.472C372.67 287.4 371.585 286.775 371.013 287.748L370.973 287.811C370.548 288.396 369.271 288.53 368.431 288.557C367.985 288.557 367.636 288.557 367.636 288.557L367.529 288.588L366.636 288.851L360.365 290.726Z" fill="#65617D"/>
<path opacity="0.1" d="M361.325 267.729L363.112 268.015L363.858 260.631C363.858 260.631 363.04 260.51 362.017 260.274C362.285 261.301 361.674 265.283 361.325 267.729Z" fill="black"/>
<path opacity="0.1" d="M408.129 233.241C408.129 233.241 413.453 231.696 412.149 246.804C410.845 261.912 400.983 271.462 400.983 271.462C400.983 271.462 389.651 276.44 384.555 275.641C381.636 275.169 378.695 274.844 375.743 274.667C374.139 273.856 372.383 273.388 370.589 273.292C367.73 273.181 361.718 271.404 361.602 270.832C361.486 270.261 363.094 261.85 362.406 261.22C362.406 261.22 370.419 261.55 371.218 262.113C372.018 262.676 373.166 262.278 374.023 262.113C374.881 261.948 377.516 259.662 382.724 261.667C382.724 261.667 384.51 261.836 385.185 261.381C385.859 260.925 386.971 261.265 386.971 261.265C387.414 261.113 387.833 260.901 388.218 260.635C388.387 260.408 389.763 260.635 389.763 260.635C389.845 260.675 389.934 260.696 390.025 260.697C390.116 260.698 390.206 260.678 390.288 260.64C390.37 260.601 390.443 260.545 390.5 260.474C390.558 260.404 390.599 260.322 390.62 260.233C390.799 259.764 391.071 259.336 391.42 258.974C391.42 258.974 392.965 250.278 395.886 247.018C395.886 247.018 396.744 246.273 396.516 245.358C396.288 244.442 401.26 231.41 408.129 233.241Z" fill="black"/>
<path d="M407.99 232.08C407.99 232.08 413.314 230.535 412.01 245.643C410.706 260.751 400.844 270.301 400.844 270.301C400.844 270.301 389.508 275.279 384.417 274.48C379.325 273.681 375.582 273.507 375.582 273.507C373.979 272.696 372.226 272.228 370.432 272.131C367.569 272.02 361.562 270.243 361.446 269.671C361.33 269.1 362.933 260.689 362.245 260.059C362.245 260.059 370.258 260.39 371.062 260.952C371.866 261.515 373.009 261.113 373.867 260.952C374.724 260.792 377.36 258.497 382.567 260.506C382.567 260.506 384.354 260.675 385.029 260.22C385.703 259.765 386.815 260.104 386.815 260.104C387.256 259.953 387.674 259.741 388.057 259.474C388.226 259.247 389.602 259.474 389.602 259.474C389.684 259.514 389.773 259.536 389.864 259.536C389.955 259.537 390.045 259.518 390.127 259.479C390.21 259.44 390.282 259.384 390.34 259.314C390.397 259.243 390.438 259.161 390.46 259.073C390.643 258.604 390.916 258.177 391.264 257.814C391.264 257.814 392.809 249.117 395.73 245.858C395.73 245.858 396.592 245.112 396.36 244.197C396.128 243.282 401.121 230.25 407.99 232.08Z" fill="#3F3D56"/>
<path opacity="0.1" d="M366.649 288.847L374.206 297.99C374.238 297.963 374.256 297.945 374.256 297.937C374.314 297.767 375.055 295.82 374.885 295.704C374.716 295.588 373.398 292.726 370.763 291.525C369.426 290.871 368.304 289.849 367.529 288.579L366.649 288.847Z" fill="black"/>
<path opacity="0.1" d="M366.752 304.669L367.578 305.147C367.578 305.147 369.494 303.607 371.406 302.057C373.318 300.508 375.162 298.995 375.193 298.932C375.247 298.763 375.993 296.816 375.819 296.7C375.729 296.642 375.336 295.847 374.617 294.914C369.49 293.477 372.755 297.035 373.188 297.195C373.188 297.195 366.935 295.767 366.605 302.553C366.56 303.262 366.609 303.973 366.752 304.669Z" fill="black"/>
<path d="M373.072 307.562L374.162 308.192L385.207 308.477C386.447 309.229 387.758 309.859 389.12 310.357C389.301 310.414 389.486 310.456 389.674 310.482C390.697 310.562 391.725 310.581 392.751 310.54C393.6 310.54 394.252 310.482 394.252 310.482C394.252 310.482 393.729 296.553 393.358 295.088C393.171 294.387 392.242 294.543 391.331 294.892C390.645 295.17 389.983 295.504 389.352 295.892C389.352 295.892 384.658 296.338 383.912 296.753C383.166 297.169 381.053 296.521 379.736 296.753C378.418 296.986 376.073 295.204 376.073 295.204C369.659 293.088 373.268 297.035 373.724 297.204C373.724 297.204 367.471 295.776 367.145 302.562C366.819 309.348 373.072 307.562 373.072 307.562Z" fill="#3F3D56"/>
<path d="M389.044 302.169C389.164 305.053 391.411 308.634 392.751 310.527C393.6 310.527 394.252 310.469 394.252 310.469C394.252 310.469 393.729 296.539 393.358 295.075C393.171 294.374 392.242 294.53 391.331 294.878C390.201 296.954 388.945 299.847 389.044 302.169Z" fill="#565387"/>
<path opacity="0.1" d="M389.044 302.169C389.164 305.053 391.411 308.634 392.751 310.527C393.6 310.527 394.252 310.469 394.252 310.469C394.252 310.469 393.729 296.539 393.358 295.075C393.171 294.374 392.242 294.53 391.331 294.878C390.201 296.954 388.945 299.847 389.044 302.169Z" fill="black"/>
<path opacity="0.05" d="M387.155 302.553C387.914 305.334 387.905 308.455 389.12 310.343C389.301 310.4 389.486 310.442 389.674 310.469C390.697 310.548 391.725 310.568 392.751 310.527C393.6 310.527 394.252 310.469 394.252 310.469C394.252 310.469 393.729 296.539 393.358 295.075C393.171 294.374 392.242 294.53 391.331 294.878C390.645 295.157 389.983 295.491 389.352 295.878C389.352 295.878 386.181 298.99 387.155 302.553Z" fill="black"/>
<path opacity="0.1" d="M349.042 274.324C349.042 274.324 354.532 276.109 359.181 282.431L349.042 274.324Z" fill="black"/>
<g opacity="0.1">
<path opacity="0.1" d="M393.631 205.668C393.631 205.712 393.631 205.753 393.6 205.793C393.544 205.955 393.48 206.115 393.408 206.271C393.464 206.063 393.539 205.862 393.631 205.668Z" fill="black"/>
<path opacity="0.1" d="M362.585 202.895C362.688 202.494 362.838 202.106 363.031 201.739C363 201.837 362.973 201.936 362.947 202.038C362.656 203.284 362.897 204.587 363.201 205.829C363.357 206.472 363.572 207.168 364.126 207.525C364.979 208.07 366.296 207.597 366.993 208.333C367.44 208.78 367.44 209.632 368.034 209.918C368.248 210.014 368.486 210.042 368.717 209.998C370.236 209.784 371.12 208.065 372.581 207.592C373.434 207.373 374.337 207.452 375.14 207.815C375.467 207.915 375.761 208.104 375.988 208.36C376.475 208.99 376.136 209.923 376.359 210.686C376.676 211.749 377.945 212.168 379.039 212.311C380.133 212.454 381.375 212.525 382.112 213.356C382.356 213.668 382.53 214.029 382.624 214.414C382.718 214.798 382.729 215.199 382.657 215.588C382.59 215.856 382.59 216.137 382.657 216.405C382.961 217.262 384.443 217.137 384.832 216.459C385.118 215.968 385.029 215.566 385.698 215.418C386.179 215.382 386.661 215.466 387.101 215.664C388.29 216.071 389.543 216.258 390.799 216.218C391.835 216.233 392.85 215.921 393.698 215.325C394.068 215.031 394.372 214.663 394.591 214.244C394.397 215.006 393.963 215.685 393.354 216.182C392.506 216.778 391.491 217.09 390.455 217.075C389.194 217.108 387.937 216.908 386.748 216.485C386.309 216.287 385.826 216.204 385.346 216.244C384.68 216.378 384.765 216.789 384.479 217.28C384.091 217.959 382.608 218.088 382.304 217.231C382.24 216.961 382.24 216.68 382.304 216.41C382.376 216.02 382.365 215.62 382.271 215.235C382.177 214.85 382.003 214.49 381.759 214.177C381.022 213.347 379.785 213.284 378.686 213.133C377.587 212.981 376.319 212.57 376.006 211.508C375.779 210.744 376.122 209.811 375.631 209.181C375.403 208.926 375.11 208.737 374.783 208.637C373.98 208.273 373.077 208.195 372.223 208.414C370.763 208.887 369.878 210.606 368.36 210.82C368.129 210.863 367.891 210.835 367.676 210.74C367.1 210.454 367.078 209.623 366.636 209.155C365.939 208.418 364.621 208.896 363.768 208.347C363.215 207.989 363 207.293 362.844 206.655C362.536 205.445 362.294 204.141 362.585 202.895Z" fill="black"/>
</g>
<path opacity="0.1" d="M394.52 248.688C393.47 250.103 392.286 251.412 391.344 252.907C390.402 254.403 389.763 256.153 389.955 257.903C390.915 256.921 391.353 255.559 391.96 254.331C392.983 252.242 394.515 250.469 395.81 248.527C396.056 248.161 397.637 246.041 396.838 245.938C396.177 245.862 394.877 248.206 394.52 248.688Z" fill="black"/>
</g>
<defs>
<linearGradient id="paint0_linear" x1="376.842" y1="310.116" x2="376.842" y2="190.547" gradientUnits="userSpaceOnUse">
<stop stop-color="#808080" stop-opacity="0.25"/>
<stop offset="0.54" stop-color="#808080" stop-opacity="0.12"/>
<stop offset="1" stop-color="#808080" stop-opacity="0.1"/>
</linearGradient>
<clipPath id="clip0">
<rect width="493" height="316" fill="white"/>
</clipPath>
</defs>
</svg>
